<?xml version="1.0" encoding="UTF-8"?>
<svg version="1.1" xmlns="http://www.w3.org/2000/svg" width="2768" height="2391">
<path d="M0 0 C0.85422546 0.00054382 1.70845093 0.00108765 2.58856201 0.00164795 C16.73395849 0.04290164 30.27122774 1.02098709 44.0625 4.375 C44.9601709 4.58930664 45.8578418 4.80361328 46.78271484 5.02441406 C78.75791213 12.88519794 107.4840717 28.63631043 132.0625 50.375 C132.89910156 51.08914063 133.73570312 51.80328125 134.59765625 52.5390625 C162.14330465 76.45674745 179.80686691 107.23243345 192.09011841 141.23309326 C193.76675817 145.87099994 195.47663472 150.49674249 197.1796875 155.125 C197.74397209 156.6623732 197.74397209 156.6623732 198.31965637 158.23080444 C203.39090703 172.02889773 208.59568571 185.77691605 213.78717422 199.53009415 C215.19303673 203.25507194 216.59782343 206.98045537 218.00268555 210.70581055 C219.69879485 215.20327758 221.39502108 219.70070037 223.09178162 224.19792175 C226.51186312 233.26276609 229.92958439 242.32849503 233.34468269 251.3952179 C243.93305171 279.50581549 254.55188535 307.60464537 265.21362305 335.6875 C270.35706148 349.23608356 275.48758096 362.78941233 280.60153198 376.34915161 C295.97675832 417.11089981 311.57035172 457.7898807 327.23713684 498.44035339 C329.83782976 505.18996428 332.43177204 511.94212833 335.02130127 518.69602966 C345.130445 545.05614954 355.37978112 571.35400027 365.875 597.5625 C366.12618088 598.18989075 366.37736176 598.81728149 366.63615417 599.46368408 C369.22783775 605.9358993 371.82669911 612.40511078 374.43994141 618.86865234 C376.18662107 623.18927593 377.91075932 627.51791057 379.61865234 631.85400391 C380.41621822 633.8571453 381.21390078 635.86024025 382.01171875 637.86328125 C382.36450394 638.77232712 382.71728912 639.68137299 383.08076477 640.6179657 C384.83594601 644.99298493 386.28712267 648.33728549 390.0625 651.375 C393.88781757 649.90967932 395.0725271 648.13632465 396.91796875 644.5390625 C397.44849854 643.51474121 397.97902832 642.49041992 398.52563477 641.43505859 C399.09467529 640.30148926 399.66371582 639.16791992 400.25 638 C400.86689182 636.78586115 401.48400391 635.57183418 402.10131836 634.35791016 C404.11531255 630.37681024 406.09319984 626.37836269 408.0625 622.375 C408.38923706 621.71185791 408.71597412 621.04871582 409.0526123 620.36547852 C420.87485629 596.32266893 431.46024993 571.77320737 441.92205811 547.11471558 C467.88109106 485.95377506 467.88109106 485.95377506 480.0625 459.375 C480.59665527 458.20565918 481.13081055 457.03631836 481.68115234 455.83154297 C483.36948314 452.14798413 485.0888597 448.47967194 486.8125 444.8125 C487.31982666 443.71099609 487.82715332 442.60949219 488.34985352 441.47460938 C492.44156181 432.89280878 497.96760904 422.37675202 507.0625 418.375 C512.1880708 417.40529742 516.64833935 417.60496223 521.125 420.4375 C524.55986705 423.50684846 526.90125866 427.00328284 529.2265625 430.9375 C529.80853645 431.91626854 529.80853645 431.91626854 530.40226746 432.91481018 C535.20502595 441.14063486 539.27154048 449.72380551 543.375 458.3125 C544.63013806 460.91881506 545.88786957 463.52386743 547.14584351 466.1288147 C547.97313193 467.84212686 548.79965953 469.55580662 549.62539673 471.26986694 C552.87258843 478.00517236 556.19431142 484.69927518 559.5625 491.375 C563.76992588 499.73011581 567.83882986 508.14267188 571.84960938 516.59375 C575.32905769 523.90108924 578.92598421 531.14470068 582.5625 538.375 C586.62903308 546.46039285 590.62267846 554.57216843 594.5 562.75 C598.57728031 571.34826466 602.78750747 579.87345025 607.0625 588.375 C611.29564929 596.79341486 615.46565528 605.23439214 619.5 613.75 C623.73431646 622.6863037 628.12180407 631.54012497 632.5625 640.375 C637.31728722 649.83499007 641.985434 659.32657213 646.5012207 668.90356445 C649.54493593 675.31258038 652.70328043 681.65787941 655.90625 687.98828125 C656.34238113 688.85227539 656.77851227 689.71626953 657.2278595 690.60644531 C659.4110359 694.9308154 661.60194215 699.2509025 663.80737305 703.56396484 C668.05766306 711.93559429 672.02266411 720.35129334 675.5234375 729.06640625 C675.84680588 729.87039352 676.17017426 730.6743808 676.50334167 731.50273132 C687.72855409 760.16715644 684.60488065 787.9783676 677.23046875 817.11328125 C677.03834053 817.87723394 676.84621231 818.64118664 676.64826202 819.42828941 C671.38904057 840.32722433 665.77605338 861.1332742 660.18333817 881.94482803 C658.69622887 887.48226059 657.21328787 893.02080887 655.73022461 898.55932617 C653.62065443 906.43677296 651.51059143 914.31408695 649.39931011 922.19107533 C644.34919544 941.03266261 639.30402436 959.87555218 634.28145218 978.72450256 C633.62643201 981.18212713 632.97082202 983.63959382 632.31515503 986.0970459 C627.40560476 1004.50638576 622.6282692 1022.9364716 618.10635376 1041.44567871 C606.58170981 1088.59068159 589.77172838 1136.43720217 557.0625 1173.375 C556.38445312 1174.16132813 555.70640625 1174.94765625 555.0078125 1175.7578125 C552.73829565 1178.34323279 550.41640187 1180.86609387 548.0625 1183.375 C547.32652588 1184.16197266 547.32652588 1184.16197266 546.57568359 1184.96484375 C509.23751034 1224.55450771 454.00023379 1246.90809554 399.953125 1248.65625 C332.2960332 1249.94974724 275.03385688 1222.4221576 227.0625 1176.375 C221.3557278 1170.86086146 215.82711274 1165.24211778 210.671875 1159.203125 C208.49513962 1156.73052268 206.14985229 1154.45193362 203.80078125 1152.14453125 C202.03292684 1150.34489519 200.38995458 1148.47898088 198.75 1146.5625 C195.19710313 1142.4347524 191.35209704 1138.64706475 187.4765625 1134.82421875 C185.36061319 1132.67745465 183.38475632 1130.48597379 181.4375 1128.1875 C178.60456171 1124.88679748 175.57006048 1122.06225753 172.25 1119.2578125 C170.73803004 1117.95643836 169.26030698 1116.61458787 167.8125 1115.2421875 C121.15870329 1071.06687374 55.53206005 1045.06522421 -8.7265625 1046.19140625 C-61.7949525 1048.27226616 -110.96660348 1065.10677238 -153.9375 1096.375 C-154.54384277 1096.81553711 -155.15018555 1097.25607422 -155.77490234 1097.70996094 C-168.21974504 1106.83784156 -179.89300596 1116.98820572 -190.63867188 1128.06176758 C-192.7942811 1130.27760706 -194.91528162 1132.35788971 -197.3671875 1134.24609375 C-199.56305432 1136.06485882 -201.20230776 1137.7738274 -203.03271484 1139.93212891 C-207.15318428 1144.68645747 -211.54017027 1149.13949016 -215.984375 1153.58984375 C-216.83622375 1154.4450209 -217.68807251 1155.30019806 -218.56573486 1156.18128967 C-220.35956912 1157.98016002 -222.1547371 1159.77770126 -223.95117188 1161.57397461 C-226.67086368 1164.29585032 -229.38245303 1167.02562464 -232.09375 1169.75585938 C-233.84846691 1171.51351157 -235.60366 1173.27068855 -237.359375 1175.02734375 C-238.15559265 1175.83074692 -238.9518103 1176.63415009 -239.77215576 1177.4618988 C-244.79829797 1182.46814974 -250.04201701 1187.04805821 -255.5788269 1191.48348999 C-258.22304478 1193.60398926 -260.76248207 1195.83020275 -263.3125 1198.0625 C-275.92955705 1208.56579035 -289.92258102 1217.61348681 -304.86376953 1224.42431641 C-307.09785161 1225.4485118 -309.31184418 1226.51046568 -311.52734375 1227.57421875 C-330.13222215 1236.37443117 -349.59547465 1243.05920018 -369.9375 1246.375 C-370.96593018 1246.54854004 -370.96593018 1246.54854004 -372.01513672 1246.72558594 C-428.62253843 1255.84228576 -490.21228061 1239.24662394 -536.4375 1205.88671875 C-539.68102818 1203.47724067 -542.8225249 1200.94765707 -545.9375 1198.375 C-546.49356934 1197.92044434 -547.04963867 1197.46588867 -547.62255859 1196.99755859 C-590.68717026 1161.62608973 -605.02404414 1114.44141709 -620.17926025 1062.44650269 C-623.87992328 1049.76853107 -627.78785476 1037.16091738 -631.75 1024.5625 C-637.94194712 1004.8658915 -644.00053615 985.13086221 -650 965.375 C-650.21907768 964.65360462 -650.43815536 963.93220924 -650.66387177 963.1889534 C-651.33242574 960.98738857 -652.00093703 958.78581078 -652.66943359 956.58422852 C-653.34644677 954.35462954 -654.0234648 952.12503204 -654.7005043 949.89544106 C-655.15621495 948.39467726 -655.61189058 946.89390284 -656.06753159 945.3931179 C-660.06472697 932.22843142 -664.08586945 919.07115936 -668.11459351 905.91609192 C-672.45327473 891.74870265 -676.78085735 877.5779507 -681.09950829 863.40444279 C-682.46846779 858.91203092 -683.84016207 854.42046121 -685.21289062 849.92919922 C-686.89499165 844.42205211 -688.56678123 838.911887 -690.22952271 833.39886475 C-690.81244808 831.47111664 -691.39860611 829.54434211 -691.98849487 827.61871338 C-696.80974395 811.86668062 -700.53480245 796.59947961 -700.375 780 C-700.36597656 778.84371094 -700.35695313 777.68742187 -700.34765625 776.49609375 C-699.99527837 758.85762342 -695.33739756 744.22902709 -687.9375 728.375 C-687.66083496 727.78058105 -687.38416992 727.18616211 -687.09912109 726.57373047 C-683.41434483 718.65835922 -679.69285853 710.76062691 -675.953125 702.87109375 C-672.56736954 695.72716943 -669.235849 688.55975366 -665.9375 681.375 C-659.06408943 666.42878392 -652.0481989 651.55031412 -645.02331543 636.67486572 C-643.92282186 634.34391023 -642.82313626 632.01257502 -641.72363281 629.68115234 C-632.74582288 610.6474323 -623.68769461 591.65630073 -614.48150635 572.73194885 C-614.16147644 572.07403854 -613.84144653 571.41612823 -613.51171875 570.73828125 C-613.19797302 570.09330185 -612.88422729 569.44832245 -612.56097412 568.78379822 C-609.94977211 563.41088801 -607.37709034 558.02025949 -604.8125 552.625 C-587.8505383 517.02220214 -570.70165867 481.3918604 -552.1171875 446.60205078 C-550.81170946 444.1375287 -549.5294945 441.66170041 -548.25 439.18359375 C-547.80060059 438.31710205 -547.35120117 437.45061035 -546.88818359 436.55786133 C-546.03282843 434.90748267 -545.18130242 433.25511112 -544.33447266 431.6003418 C-540.60845455 424.44131953 -536.65346922 418.50760647 -528.9375 415.375 C-523.72118172 414.51671217 -519.47755929 414.63458688 -514.6875 416.9375 C-513.78 417.741875 -512.8725 418.54625 -511.9375 419.375 C-511.39867187 419.81457031 -510.85984375 420.25414062 -510.3046875 420.70703125 C-496.49182483 432.94039617 -489.56203343 455.47123588 -482.42871094 472.02636719 C-475.66311017 487.70226919 -468.66409918 503.27640877 -461.71917725 518.87341309 C-459.03277617 524.90823793 -456.35448641 530.94657832 -453.68359375 536.98828125 C-437.82536356 572.84538901 -421.86093207 608.77127372 -403.75 643.5625 C-403.42386719 644.19704102 -403.09773438 644.83158203 -402.76171875 645.48535156 C-400.57630232 649.58759858 -397.98822277 652.90276113 -394.9375 656.375 C-392.32100688 656.01011251 -391.18702806 655.65462847 -389.40136719 653.65356445 C-385.88454467 648.12444567 -382.87572146 642.53709759 -380.1875 636.5625 C-379.73270264 635.55952881 -379.27790527 634.55655762 -378.80932617 633.52319336 C-364.71467416 601.9747442 -352.33686414 569.61803018 -339.9375 537.375 C-339.62141785 536.55332336 -339.30533569 535.73164673 -338.97967529 534.8850708 C-317.63846426 479.37550228 -297.0153161 423.588441 -276.27734375 367.8515625 C-201.94662367 168.09644653 -201.94662367 168.09644653 -180.9375 119.375 C-180.57833496 118.54081543 -180.21916992 117.70663086 -179.84912109 116.84716797 C-170.38899213 95.14610986 -157.2248695 76.47042504 -140.9375 59.375 C-140.32261719 58.71886719 -139.70773437 58.06273437 -139.07421875 57.38671875 C-134.10619403 52.22898425 -128.53511349 47.82532195 -122.9375 43.375 C-121.97070312 42.57964844 -121.00390625 41.78429688 -120.0078125 40.96484375 C-86.20497495 13.82796017 -43.03939952 -0.10363372 0 0 Z M133.87109375 709.71875 C126.12770967 714.63631325 118.16447088 719.08113101 110.0625 723.375 C109.43069824 723.71547363 108.79889648 724.05594727 108.14794922 724.40673828 C83.10070659 737.84241659 56.05726417 746.71212027 28.0625 751.375 C27.35689941 751.49359375 26.65129883 751.6121875 25.92431641 751.734375 C-33.99379065 761.27357612 -93.19462228 742.0599924 -143.8125 711.27441406 C-173.69038746 692.17582921 -173.69038746 692.17582921 -207.9375 689.375 C-218.11094635 692.4299159 -225.66787986 697.77933742 -231.9375 706.375 C-233.59738056 709.62341956 -234.87182188 712.88896819 -235.9375 716.375 C-236.22367188 717.27992188 -236.22367188 717.27992188 -236.515625 718.203125 C-239.62324351 734.20160548 -234.35244108 748.88356072 -225.9375 762.375 C-217.70732602 774.14705758 -207.1348768 783.41397915 -195.75097656 792.00146484 C-194.01672782 793.3149925 -192.30076034 794.64955138 -190.5859375 795.98828125 C-174.97477176 807.98930906 -157.61154404 818.15253029 -139.78710938 826.49658203 C-137.89887989 827.39334149 -136.03552653 828.3306739 -134.171875 829.27734375 C-65.46978212 863.65834625 13.8243324 867.7601951 86.35791016 844.30957031 C124.71391947 831.42827329 160.44656878 811.55696139 192.0625 786.375 C192.95710938 785.68535156 193.85171875 784.99570313 194.7734375 784.28515625 C211.4904649 771.12233556 228.94863006 754.37128449 232.81640625 732.48046875 C234.20521236 720.5984609 230.91764075 711.11834726 224.0625 701.375 C221.66666349 698.56168622 221.66666349 698.56168622 219.0625 696.375 C218.134375 695.529375 217.20625 694.68375 216.25 693.8125 C190.25792513 672.78074476 156.80550296 695.09769612 133.87109375 709.71875 Z " fill="#1C0D02" transform="translate(1385.9375,1019.625)"/>
<path d="M0 0 C1.45696289 0.66467285 1.45696289 0.66467285 2.94335938 1.34277344 C17.74946328 8.13097044 31.96827487 15.73493134 46 24 C46.9806543 24.57685547 47.96130859 25.15371094 48.97167969 25.74804688 C61.72630906 33.28998715 74.07236034 41.20827938 86 50 C86.66547852 50.48678223 87.33095703 50.97356445 88.01660156 51.47509766 C101.00005281 60.98856326 113.75098282 70.88989835 125.59375 81.8046875 C126.90206452 82.99831211 128.21783843 84.18471343 129.56860352 85.33007812 C136.05590342 90.85499058 142.05102774 96.86493267 148.07202148 102.88671875 C149.92477468 104.73728967 151.78538706 106.57970076 153.64648438 108.421875 C160.56662972 115.30967593 166.94823729 122.32870626 173 130 C173.94671296 131.12502648 174.89995815 132.24463185 175.86328125 133.35546875 C194.22585384 154.58810851 210.51791644 178.37250999 224 203 C224.46035645 203.83853516 224.92071289 204.67707031 225.39501953 205.54101562 C268.69897225 285.05271557 285.73414583 377.32559228 274 575 C273.79181641 575.96905273 273.58363281 576.93810547 273.36914062 577.93652344 C270.12413806 592.75869669 264.89142461 606.14017395 258.46777344 619.86132812 C257.05465086 622.88313515 255.66772356 625.91546512 254.2890625 628.953125 C251.53156927 635.01019117 248.72435678 641.0432871 245.90252686 647.07061768 C244.9607711 649.08386182 244.0215601 651.09828108 243.08251953 653.11279297 C233.00820858 674.70084197 222.54913209 696.09041296 211.89521408 717.39715576 C210.95100487 719.28549143 210.00737386 721.1741153 209.06375122 723.06274414 C202.61119907 735.97120909 196.09114649 748.83662451 189.33032227 761.58666992 C185.7171887 768.40765063 182.21377586 775.28526758 178.69866943 782.15710449 C167.79369683 803.47174771 167.79369683 803.47174771 162.875 812.75 C157.43926383 823.00791481 152.13940815 833.33592773 146.83305359 843.6611557 C143.58489139 849.98110491 140.33059834 856.29775896 137.0625 862.60742188 C123.78096101 888.27456904 110.89137613 914.13530591 98 940 C94.20370153 947.61649868 90.4059344 955.23225878 86.60479736 962.84634399 C85.11553225 965.83120988 83.62873174 968.81729377 82.14208984 971.8034668 C77.35761637 981.39797536 72.49087455 990.93900901 67.47285461 1000.41357422 C63.96550917 1007.04029709 60.58226981 1013.7207352 57.25 1020.4375 C56.35749006 1022.22831059 55.46497753 1024.01911989 54.57232666 1025.80986023 C53.04643111 1028.87235161 51.52327502 1031.93620456 50 1035 C47.585933 1039.85546428 45.17027475 1044.71012654 42.75 1049.5625 C42.30625534 1050.45227036 42.30625534 1050.45227036 41.85354614 1051.36001587 C38.37679149 1058.32508377 34.84906537 1065.2553766 31.1875 1072.125 C26.62312862 1080.69694877 22.27292857 1089.37334327 17.9375 1098.0625 C17.57706604 1098.78480804 17.21663208 1099.50711609 16.84527588 1100.25131226 C14.22734547 1105.49946211 11.6132877 1110.74953715 9 1116 C6.37997984 1121.26398932 3.75849321 1126.52723879 1.13357544 1131.78878784 C0.10743415 1133.84735644 -0.91621614 1135.90714892 -1.93969727 1137.96704102 C-5.51598093 1145.14705475 -9.17935415 1152.27355722 -12.93164062 1159.36328125 C-17.39971478 1167.80815317 -21.72015841 1176.31904566 -25.97428894 1184.87341309 C-27.20237259 1187.34273939 -28.4332286 1189.81066835 -29.66467285 1192.27832031 C-32.27875745 1197.51773089 -34.88964546 1202.75873027 -37.5 1208 C-40.53307369 1214.0900376 -43.56758234 1220.1793521 -46.60551453 1226.26696777 C-47.79783608 1228.65792886 -48.98767921 1231.05011103 -50.17736816 1233.44238281 C-54.43931151 1241.9944979 -58.81163279 1250.47849771 -63.2820816 1258.92344666 C-67.22872912 1266.39535653 -71.02699015 1273.93684904 -74.78909302 1281.50302124 C-75.98356622 1283.90514046 -77.18082142 1286.3058572 -78.37866211 1288.70629883 C-80.92141952 1293.80304877 -83.46097804 1298.90138838 -86 1304 C-89.35163919 1310.7304288 -92.70477955 1317.46010262 -96.0625 1324.1875 C-96.66859856 1325.40197815 -96.66859856 1325.40197815 -97.28694153 1326.64099121 C-101.8950211 1335.86843511 -106.54530769 1345.06396216 -111.40270996 1354.16333008 C-115.04240217 1361.00800727 -118.50893145 1367.93824744 -121.96875 1374.875 C-122.27470093 1375.48834198 -122.58065186 1376.10168396 -122.89587402 1376.73361206 C-125.10011078 1381.15431847 -127.30045388 1385.57695831 -129.5 1390 C-132.00782671 1395.04295954 -134.51726338 1400.08510794 -137.03125 1405.125 C-137.33499542 1405.73403231 -137.63874084 1406.34306461 -137.95169067 1406.97055244 C-142.07430365 1415.22949848 -146.28469131 1423.43377714 -150.61584473 1431.58506775 C-154.20970576 1438.35681627 -157.62861434 1445.20858338 -161.02096558 1452.08294678 C-184.92128068 1500.40805634 -184.92128068 1500.40805634 -209.2734375 1510.08984375 C-220.73346735 1513.91532649 -234.16367517 1513.33880185 -245 1508 C-270.40710682 1493.40378369 -283.03169757 1465.21379315 -295.53417969 1439.96411133 C-298.64737361 1433.67923862 -301.83287193 1427.44292525 -305.125 1421.25 C-308.95118764 1414.0492428 -312.62658952 1406.78389102 -316.25048828 1399.47949219 C-319.08862949 1393.7765918 -322.01399613 1388.12675105 -325 1382.5 C-328.86581565 1375.21535363 -332.58492985 1367.86787578 -336.25 1360.48046875 C-339.08830771 1354.7772442 -342.01382527 1349.12707301 -345 1343.5 C-348.806625 1336.32689101 -352.49211016 1329.10241587 -356.07421875 1321.81445312 C-358.82301771 1316.2541633 -361.69543535 1310.76451008 -364.59375 1305.28125 C-369.81572986 1295.39628072 -374.90839278 1285.44769647 -379.98025513 1275.48504639 C-382.61817017 1270.303717 -385.26034882 1265.1245624 -387.90234375 1259.9453125 C-388.42791367 1258.91483795 -388.95348358 1257.8843634 -389.49497986 1256.82266235 C-393.99802492 1247.99672047 -398.52475258 1239.18313849 -403.0625 1230.375 C-409.90194289 1217.09705248 -416.70669677 1203.80160973 -423.5 1190.5 C-430.31454458 1177.15693932 -437.14046593 1163.81999065 -444 1150.5 C-450.81665588 1137.26273112 -457.60193228 1124.00962239 -464.375 1110.75 C-471.61426313 1096.57780894 -478.86052719 1082.40928726 -486.125 1068.25 C-486.53072235 1067.4591803 -486.9364447 1066.6683606 -487.35446167 1065.85357666 C-487.7601236 1065.06287781 -488.16578552 1064.27217896 -488.58374023 1063.45751953 C-489.40348622 1061.85970214 -490.22322906 1060.26188313 -491.04296875 1058.6640625 C-491.448535 1057.87355499 -491.85410126 1057.08304749 -492.2719574 1056.26858521 C-499.20526643 1042.75329437 -506.12682498 1029.23197949 -513.05039978 1015.71170044 C-516.0820966 1009.79167162 -519.11500546 1003.87226485 -522.1484375 997.953125 C-531.95311142 978.81993875 -541.74290061 959.67923361 -551.51583862 940.52981567 C-556.94757254 929.88670595 -562.38329253 919.24569603 -567.8359375 908.61328125 C-568.30630432 907.69590179 -568.77667114 906.77852234 -569.2612915 905.83334351 C-571.46450346 901.53663443 -573.66876367 897.24046941 -575.875 892.9453125 C-580.47934718 883.97306325 -585.033062 874.97769794 -589.51693726 865.9445343 C-592.1824656 860.58646847 -594.93585653 855.2814316 -597.75 850 C-601.96216142 842.06343281 -605.99996957 834.04500803 -610 826 C-613.87572004 818.20521831 -617.77670948 810.43080978 -621.875 802.75 C-626.41048581 794.2459641 -630.70681232 785.62792473 -635 777 C-639.25172723 768.45545423 -643.50350434 759.91930049 -648 751.5 C-652.87056622 742.38028462 -657.45609786 733.12203701 -662.06152344 723.86669922 C-665.96086356 716.03375095 -669.87763862 708.21876632 -674 700.5 C-678.86796414 691.3851568 -683.45412547 682.13304227 -688.0534668 672.88079834 C-692.10190865 664.73880073 -696.20357088 656.63987096 -700.5 648.625 C-721.75735101 608.48522732 -731.30689465 564.73355447 -736.1875 519.875 C-736.27235657 519.09612427 -736.35721313 518.31724854 -736.44464111 517.51477051 C-737.00202436 512.34665517 -737.51894909 507.17576582 -738 502 C-738.10747559 500.85853516 -738.21495117 499.71707031 -738.32568359 498.54101562 C-739.38642927 485.30930836 -739.24388052 472.01505726 -739.25 458.75 C-739.25067474 457.43631439 -739.25134949 456.12262878 -739.25204468 454.76913452 C-739.22150254 372.81670094 -719.70522105 294.22680121 -683 221 C-682.58008789 220.15759766 -682.16017578 219.31519531 -681.72753906 218.44726562 C-662.28889298 179.70484699 -635.81495369 144.1868782 -606.37939453 112.49267578 C-604.98231325 110.98086075 -603.59700462 109.45905396 -602.21484375 107.93359375 C-594.56498795 99.49848341 -586.78002081 91.24631298 -578.1171875 83.8359375 C-575.59400545 81.6479383 -573.14445481 79.38706887 -570.6875 77.125 C-565.28275991 72.20757254 -559.71807326 67.54643381 -554 63 C-553.38334473 62.5054834 -552.76668945 62.0109668 -552.13134766 61.50146484 C-533.39635415 46.51075022 -513.80048691 32.96276375 -493 21 C-492.32485352 20.60796387 -491.64970703 20.21592773 -490.95410156 19.81201172 C-486.34052746 17.13715729 -481.68291787 14.5511962 -477 12 C-475.80624756 11.34378662 -475.80624756 11.34378662 -474.58837891 10.67431641 C-395.70525352 -32.46325283 -304.62187201 -52.38115329 0 0 Z M-497 131 C-498.01449219 131.804375 -499.02898437 132.60875 -500.07421875 133.4375 C-505.63789267 137.90706231 -510.95755312 142.60308951 -516.19921875 147.4453125 C-518.36174431 149.41782535 -520.54817124 151.33714575 -522.765625 153.24609375 C-527.39376789 157.28393176 -531.7319472 161.58490876 -536.0625 165.9375 C-536.82626953 166.69740234 -537.59003906 167.45730469 -538.37695312 168.24023438 C-543.12524913 172.99665407 -547.6369094 177.88937973 -552 183 C-552.87741143 184.00928217 -553.75500092 185.01840959 -554.6328125 186.02734375 C-578.42892655 213.81434213 -597.53014743 244.41135025 -614 277 C-614.37898438 277.74717285 -614.75796875 278.4943457 -615.1484375 279.26416016 C-636.32626495 321.41082334 -648.60681988 368.5799636 -654.25 415.25 C-654.33308411 415.93561005 -654.41616821 416.62122009 -654.50177002 417.3276062 C-658.8976982 454.06437467 -659.02577383 492.31586096 -654 529 C-653.90525391 529.69814819 -653.81050781 530.39629639 -653.71289062 531.11560059 C-644.81915401 595.8894691 -623.42516969 659.79427871 -588 715 C-587.51998535 715.75104004 -587.0399707 716.50208008 -586.54541016 717.27587891 C-575.51991586 734.41561128 -563.52599616 750.75288158 -550 766 C-548.77024445 767.41615551 -547.54098098 768.83273869 -546.3125 770.25 C-545.2086762 771.50030278 -544.10450644 772.75030022 -543 774 C-542.40960937 774.68320312 -541.81921875 775.36640625 -541.2109375 776.0703125 C-536.00670828 781.99790949 -530.50458992 787.60170384 -524.9375 793.1875 C-523.80380981 794.32807861 -523.80380981 794.32807861 -522.6472168 795.49169922 C-517.92648193 800.19959903 -513.06535013 804.6669078 -508 809 C-507.03578125 809.845625 -506.0715625 810.69125 -505.078125 811.5625 C-466.63317843 844.69737108 -421.73742569 869.98685949 -374 887 C-373.09378906 887.32548828 -372.18757813 887.65097656 -371.25390625 887.98632812 C-289.35365527 917.13210838 -198.96904817 921.30642856 -115 899 C-113.5444873 898.61787354 -113.5444873 898.61787354 -112.05957031 898.22802734 C-60.99607961 884.64006143 -12.81931549 860.17993893 29 828 C29.66241699 827.49452637 30.32483398 826.98905273 31.00732422 826.46826172 C37.74444045 821.319363 44.28971575 816.02331709 50.5234375 810.265625 C52.59344337 808.37192878 54.68836909 806.52092565 56.8046875 804.6796875 C68.20048861 794.73194225 78.91453426 784.26851158 89 773 C90.16402344 771.74316406 90.16402344 771.74316406 91.3515625 770.4609375 C97.09934625 764.22570919 102.33281532 757.65269721 107.50244141 750.93896484 C109.04825404 748.93752306 110.60743442 746.94700943 112.16796875 744.95703125 C174.03328614 665.65086065 206.97973267 565.59592167 203.50488281 419.98730469 C192.86690834 334.4391709 156.36097776 250.68182327 99 186 C97.81205822 184.62538166 96.6244873 183.25044262 95.4375 181.875 C94.29546932 180.57996999 93.14928707 179.2885946 92 178 C91.23945312 177.14664063 90.47890625 176.29328125 89.6953125 175.4140625 C84.21819399 169.35185121 78.57860596 163.4757549 72.8125 157.6875 C72.15967041 157.03007812 71.50684082 156.37265625 70.83422852 155.6953125 C66.3864501 151.26152961 61.7673488 147.08638773 57 143 C56.22064087 142.32215454 56.22064087 142.32215454 55.42553711 141.63061523 C-15.07255837 80.3253482 -107.27017153 40.00624515 -201 35 C-202.63098633 34.90960449 -202.63098633 34.90960449 -204.29492188 34.81738281 C-308.97180755 29.34918729 -413.57385997 63.97713896 -497 131 Z " fill="#1C0D02" transform="translate(843,156)"/>
<path d="M0 0 C0.66558489 -0.00282738 1.33116978 -0.00565475 2.0169239 -0.00856781 C5.55401095 -0.0234268 9.09105877 -0.0327343 12.62817383 -0.03710938 C15.47335969 -0.04144753 18.31823433 -0.05517535 21.16333008 -0.078125 C47.53589316 -0.28613157 73.48122849 1.37507209 99.50390625 5.953125 C100.60383408 6.14154465 100.60383408 6.14154465 101.72598267 6.33377075 C156.15514742 15.67200477 208.14694811 32.41699247 257.50390625 57.203125 C258.36161621 57.63334961 259.21932617 58.06357422 260.10302734 58.50683594 C291.73011024 74.49195852 321.36783631 94.44338733 348.50390625 117.203125 C349.11218262 117.71230469 349.72045898 118.22148437 350.34716797 118.74609375 C363.07310443 129.43519342 375.11209983 140.72378319 386.87890625 152.453125 C387.35344238 152.9249823 387.82797852 153.3968396 388.31689453 153.88299561 C393.93822403 159.48022952 399.36157434 165.16362726 404.50390625 171.203125 C405.45305434 172.28636061 406.40352184 173.36844192 407.35546875 174.44921875 C415.15646595 183.39247004 422.42180911 192.68327335 429.50390625 202.203125 C430.04692383 202.93047852 430.58994141 203.65783203 431.14941406 204.40722656 C439.51612022 215.65728957 447.20726206 227.23355085 454.50390625 239.203125 C454.93268066 239.90228027 455.36145508 240.60143555 455.80322266 241.32177734 C463.31539299 253.62321273 470.00955291 266.34004679 476.50390625 279.203125 C476.97473633 280.13398926 477.44556641 281.06485352 477.93066406 282.02392578 C519.31557042 364.48922447 535.02746646 459.45422041 508.50390625 656.203125 C501.20815329 678.16928196 490.93467645 698.78182473 480.1015625 719.18554688 C477.27114917 724.5314987 474.47936983 729.89744069 471.69140625 735.265625 C471.11189209 736.38106689 470.53237793 737.49650879 469.93530273 738.64575195 C465.12637025 747.9343103 460.44476987 757.28332722 455.78643799 766.64804077 C451.76537857 774.72915558 447.67082649 782.76097607 443.42089844 790.72460938 C439.30770664 798.48014519 435.41446184 806.34419369 431.50390625 814.203125 C426.87096943 823.51380511 422.19858293 832.78985224 417.30078125 841.96484375 C413.05460928 849.96344676 409.04865373 858.08203147 405.01586914 866.18945312 C400.87194523 874.51642371 396.65769049 882.79623839 392.28125 891.00390625 C388.24393497 898.61371385 384.42360838 906.33101135 380.58862305 914.04394531 C376.58117194 922.09966316 372.49146632 930.10168772 368.26171875 938.04296875 C364.13863197 945.81908356 360.24000805 953.70495042 356.32226562 961.5859375 C352.72531364 968.80526163 349.03061717 975.96175789 345.2421875 983.08203125 C341.3518352 990.42350252 337.6613236 997.86091625 333.96459961 1005.30126953 C330.50436231 1012.2483656 326.93654955 1019.12818615 323.29296875 1025.98046875 C319.38807151 1033.35500399 315.67976915 1040.82374724 311.96704102 1048.29638672 C308.48269404 1055.29191343 304.89048428 1062.22040447 301.22265625 1069.12109375 C297.5655741 1076.02631915 294.08394529 1083.01391983 290.60913086 1090.01220703 C287.2617125 1096.73533677 283.79652952 1103.38717072 280.2734375 1110.01953125 C277.08983938 1116.03522612 274.03067216 1122.10720151 271.00390625 1128.203125 C267.19851246 1135.8672094 263.28748304 1143.46293123 259.2734375 1151.01953125 C255.60164216 1157.95771867 252.10237172 1164.9767574 248.61157227 1172.00732422 C245.24005067 1178.7788943 241.75051905 1185.47941729 238.203125 1192.16015625 C235.21787737 1197.80000699 232.3398978 1203.4869159 229.50390625 1209.203125 C226.27629683 1215.70867694 222.97219785 1222.16406322 219.56640625 1228.578125 C215.9427226 1235.40386873 212.44064994 1242.28141953 209.00390625 1249.203125 C205.17530115 1256.91405117 201.24046689 1264.55670797 197.203125 1272.16015625 C193.77909165 1278.62897875 190.50638296 1285.166889 187.25366211 1291.72314453 C184.01923439 1298.22232866 180.65675023 1304.64635963 177.25390625 1311.05859375 C174.25269064 1316.73276701 171.35666486 1322.45303344 168.50390625 1328.203125 C164.86027554 1335.54731815 161.09687855 1342.81699282 157.25390625 1350.05859375 C153.87321893 1356.45020571 150.61913714 1362.89959161 147.4296875 1369.38867188 C144.68088854 1374.9489617 141.8084709 1380.43861492 138.91015625 1385.921875 C133.68779362 1395.80756885 128.59478056 1405.75689252 123.52255249 1415.72027588 C120.89026512 1420.89048331 118.25359744 1426.05845638 115.6171875 1431.2265625 C115.09244339 1432.25538544 114.56769928 1433.28420837 114.02705383 1434.34420776 C108.72116648 1444.74379058 103.38910459 1455.12981609 98.03686523 1465.50561523 C94.18548212 1472.97419087 90.35747301 1480.45378322 86.55859375 1487.94921875 C65.04947388 1530.33570637 65.04947388 1530.33570637 52.50390625 1544.203125 C51.93414063 1544.85410156 51.364375 1545.50507812 50.77734375 1546.17578125 C41.91028105 1555.73623985 29.98654648 1562.15506722 16.92407227 1562.67358398 C0.43584499 1562.8801777 -11.73761387 1556.6960988 -23.9765625 1545.9375 C-30.53363907 1538.82129287 -35.07880264 1530.60245121 -39.296875 1521.95703125 C-40.07879463 1520.38114479 -40.07879463 1520.38114479 -40.87651062 1518.77342224 C-42.52824516 1515.44123527 -44.16894942 1512.10377517 -45.80859375 1508.765625 C-47.9678124 1504.39017119 -50.13155157 1500.01696671 -52.296875 1495.64453125 C-52.82910675 1494.56829498 -53.3613385 1493.49205872 -53.90969849 1492.38320923 C-56.99579273 1486.16164085 -60.15112905 1479.98598221 -63.4140625 1473.85546875 C-70.34663317 1460.82652162 -76.842697 1447.57392205 -83.41259766 1434.35974121 C-92.22692059 1416.57215021 -92.22692059 1416.57215021 -101.37109375 1398.953125 C-105.75931032 1390.70942903 -109.95241665 1382.37170897 -114.12109375 1374.015625 C-114.45955322 1373.33726593 -114.7980127 1372.65890686 -115.14672852 1371.95999146 C-117.95412304 1366.33115879 -120.75628988 1360.69972692 -123.55834961 1355.0682373 C-125.99357639 1350.17452438 -128.43071029 1345.28176865 -130.87109375 1340.390625 C-131.21038406 1339.71052368 -131.54967438 1339.03042236 -131.89924622 1338.32971191 C-135.67565174 1330.76592344 -139.48708121 1323.22610939 -143.46484375 1315.765625 C-147.90187067 1307.44235493 -152.12933766 1299.0174295 -156.33984375 1290.578125 C-156.68947174 1289.87742889 -157.03909973 1289.17673279 -157.39932251 1288.45480347 C-160.3013265 1282.63673917 -163.19810752 1276.8160775 -166.0947876 1270.99536133 C-168.61162491 1265.93844359 -171.13036147 1260.88247899 -173.65234375 1255.828125 C-174.0022084 1255.126875 -174.35207306 1254.425625 -174.71253967 1253.703125 C-178.94516641 1245.22593078 -183.24564792 1236.79272518 -187.703125 1228.43115234 C-191.5570758 1221.16584792 -195.23142544 1213.81196105 -198.90234375 1206.453125 C-199.23004257 1205.79628723 -199.55774139 1205.13944946 -199.89537048 1204.46270752 C-202.60774398 1199.02393066 -205.31488297 1193.58255173 -208.02191162 1188.14111328 C-210.37552742 1183.41060493 -212.73106221 1178.68105986 -215.08984375 1173.953125 C-215.41756271 1173.29616638 -215.74528168 1172.63920776 -216.08293152 1171.96234131 C-220.19759756 1163.72062892 -224.38994549 1155.5278315 -228.72021484 1147.39697266 C-232.41382798 1140.43026873 -235.945642 1133.38400387 -239.46484375 1126.328125 C-239.77047745 1125.71541748 -240.07611115 1125.10270996 -240.39100647 1124.47143555 C-242.91388834 1119.41167213 -245.43152322 1114.34930167 -247.94903564 1109.28686523 C-250.13942788 1104.88276527 -252.3317625 1100.47964059 -254.52734375 1096.078125 C-254.83275085 1095.4657901 -255.13815796 1094.8534552 -255.45281982 1094.2225647 C-259.46106158 1086.19315309 -263.55648927 1078.21754167 -267.7713623 1070.29467773 C-274.15060628 1058.25795045 -280.12034481 1046.00783117 -286.18261719 1033.80957031 C-287.84785422 1030.46071187 -289.51568564 1027.11315371 -291.18359375 1023.765625 C-291.91219604 1022.2959729 -291.91219604 1022.2959729 -292.65551758 1020.79663086 C-295.75039996 1014.58589598 -298.94795051 1008.43647265 -302.1953125 1002.3046875 C-307.32339504 992.60793637 -312.24860818 982.81545152 -317.137146 972.9961853 C-318.66771251 969.92198962 -320.20098428 966.84915546 -321.73486328 963.77661133 C-325.53994129 956.15326669 -329.3405941 948.52771812 -333.14135742 940.90222168 C-336.36966777 934.42567907 -339.59972346 927.95001236 -342.83197021 921.47543335 C-344.32342359 918.48616854 -345.81241453 915.49568654 -347.30126953 912.50512695 C-352.49750253 902.08487495 -357.79483024 891.72799477 -363.25415039 881.44299316 C-366.69199539 874.9632142 -370.02549645 868.42939056 -373.36990356 861.90106201 C-380.89702635 847.20466644 -380.89702635 847.20466644 -388.55859375 832.578125 C-399.66741639 811.59397592 -410.45964423 790.43979152 -421.01879883 769.17431641 C-425.21618753 760.73236954 -429.43512939 752.30120155 -433.68147278 743.8837738 C-442.68095037 726.04289221 -451.54110849 708.16871128 -459.78320312 689.96191406 C-461.00316562 687.27408897 -462.24168928 684.59556411 -463.49023438 681.92089844 C-472.30519943 663.03146776 -480.20092635 644.7151368 -484.49609375 624.203125 C-484.72296875 623.1605957 -484.94984375 622.11806641 -485.18359375 621.04394531 C-491.42440396 591.92311925 -494.59991022 561.67746287 -494.69921875 531.91015625 C-494.70624115 530.48251312 -494.71332796 529.0548703 -494.72047424 527.62722778 C-494.7398732 523.09002225 -494.74490841 518.55286783 -494.74609375 514.015625 C-494.74653561 513.24245564 -494.74697746 512.46928627 -494.74743271 511.67268753 C-494.75420074 489.09199744 -494.58496825 466.65916042 -491.74932861 444.22393799 C-491.48179398 442.08901293 -491.228005 439.95273788 -490.97607422 437.81591797 C-484.61061063 384.36035984 -471.04517938 332.58284292 -449.49609375 283.203125 C-449.13306152 282.36507324 -448.7700293 281.52702148 -448.39599609 280.66357422 C-430.59512087 239.95436231 -403.45086517 202.304988 -373.64453125 169.5703125 C-372.26115023 168.04607814 -370.89024354 166.51037994 -369.53515625 164.9609375 C-364.5365243 159.27283907 -359.2776232 153.87870727 -353.93359375 148.515625 C-353.22525391 147.80269287 -352.51691406 147.08976074 -351.78710938 146.35522461 C-347.7407363 142.32057064 -343.59503544 138.4637301 -339.2668457 134.7331543 C-337.09101116 132.85311085 -334.98335213 130.90408365 -332.87109375 128.953125 C-327.26459361 123.90130143 -321.37210626 119.27490731 -315.39550781 114.67431641 C-313.50836531 113.21262994 -311.63806021 111.73147204 -309.76953125 110.24609375 C-292.42141998 96.57485033 -273.71559868 84.08846234 -254.49609375 73.203125 C-253.81885254 72.81785645 -253.14161133 72.43258789 -252.44384766 72.03564453 C-247.91844961 69.47013642 -243.37004758 66.94962828 -238.80224609 64.46044922 C-237.29281788 63.63750244 -235.78524868 62.81113443 -234.27978516 61.98095703 C-164.68182441 23.68587151 -79.77581809 0.27073423 0 0 Z M-45.49609375 89.203125 C-46.15836975 89.30967407 -46.82064575 89.41622314 -47.50299072 89.52600098 C-88.58822887 96.19669455 -127.74744316 108.86774026 -165.49609375 126.203125 C-166.42711914 126.63061035 -167.35814453 127.0580957 -168.31738281 127.49853516 C-207.27710625 145.64161643 -242.88183829 171.24712525 -274.49609375 200.203125 C-275.01204102 200.67395508 -275.52798828 201.14478516 -276.05957031 201.62988281 C-284.60626622 209.43382418 -293.04946279 217.23250295 -300.59765625 226.02734375 C-302.7635438 228.50964698 -305.00486332 230.91367645 -307.24609375 233.328125 C-313.02646299 239.68304902 -318.29999992 246.36624729 -323.49609375 253.203125 C-324.03250488 253.904375 -324.56891602 254.605625 -325.12158203 255.328125 C-376.54264605 322.80063869 -408.65774148 403.59016138 -415.49609375 488.203125 C-415.60824219 489.50894531 -415.72039062 490.81476563 -415.8359375 492.16015625 C-421.2095173 565.99167046 -405.48322154 639.91149262 -375.49609375 707.203125 C-375.14337402 708.00105469 -374.7906543 708.79898438 -374.42724609 709.62109375 C-358.02848908 746.47956302 -335.25789725 780.28595183 -309.49609375 811.203125 C-308.66134521 812.20956055 -307.82659668 813.21599609 -306.96655273 814.25292969 C-299.69913193 822.92347004 -291.97346804 831.03720367 -283.95043945 839.00952148 C-281.92486893 841.02430335 -279.91030991 843.04965775 -277.89648438 845.07617188 C-270.73149621 852.24844526 -263.46752181 858.92883419 -255.49609375 865.203125 C-254.39373995 866.13728461 -253.29743606 867.07869609 -252.2109375 868.03125 C-182.35418943 928.94712033 -87.04024327 961.76788803 40.08427429 962.54405212 C100.64791857 958.26294374 160.58810385 943.32208538 214.59130859 915.19628906 C216.56237641 914.17276291 218.5424026 913.16814217 220.5234375 912.1640625 C236.6832822 903.8868364 252.21067944 894.33110567 266.77636719 883.48632812 C268.63777288 882.10368987 270.51187997 880.73935831 272.38671875 879.375 C281.84866121 872.44028821 290.7609619 865.01924654 299.50390625 857.203125 C300.45007812 856.36910156 301.39625 855.53507813 302.37109375 854.67578125 C309.18593549 848.56559029 315.692782 842.14632147 322.19140625 835.703125 C323.07070801 834.836875 323.95000977 833.970625 324.85595703 833.078125 C330.84249881 827.09946173 336.21839051 820.80262482 341.50390625 814.203125 C342.42746718 813.11345169 343.35707034 812.02882009 344.296875 810.953125 C362.81169392 789.68977668 377.97109432 765.87300921 391.50390625 741.203125 C392.24423096 739.86024414 392.24423096 739.86024414 392.99951172 738.49023438 C406.00599806 714.73741909 416.164293 689.94536146 424.50390625 664.203125 C424.97304443 662.77637451 424.97304443 662.77637451 425.45166016 661.32080078 C434.09933985 634.86120698 439.65492828 607.74229132 443.50390625 580.203125 C443.75164795 578.55473633 443.75164795 578.55473633 444.00439453 576.87304688 C449.54923963 539.09699776 449.08655972 497.96364841 443.50390625 460.203125 C443.3322998 458.9867334 443.16069336 457.7703418 442.98388672 456.51708984 C431.93172815 379.60631348 401.37818885 305.13111674 351.50390625 245.203125 C350.24707031 243.6871875 350.24707031 243.6871875 348.96484375 242.140625 C339.47755773 230.76944715 329.42894508 220.03048745 319.00390625 209.515625 C318.13781738 208.63648438 317.27172852 207.75734375 316.37939453 206.8515625 C311.20736838 201.67272209 305.86048295 196.91765696 300.14477539 192.34741211 C297.66045295 190.33023507 295.27749909 188.2418288 292.90625 186.09375 C288.47825429 182.11887438 283.83895629 178.50319906 279.06640625 174.953125 C278.19588623 174.30472656 277.32536621 173.65632813 276.4284668 172.98828125 C220.05985504 131.32697132 154.29678421 101.5335123 85.06640625 89.890625 C84.34274872 89.76742889 83.61909119 89.64423279 82.87350464 89.51730347 C61.75039331 85.95977427 40.85199401 84.79221063 19.44140625 84.828125 C18.21567902 84.82866882 16.98995178 84.82921265 15.7270813 84.82977295 C-4.92506726 84.87172124 -25.1091005 85.88444345 -45.49609375 89.203125 Z " fill="#1C0D02" transform="translate(2113.49609375,105.796875)"/>
<path d="M0 0 C3.45727496 0.0031476 6.91368028 -0.02035494 10.37084961 -0.0456543 C30.9071631 -0.10481679 51.26721065 1.63673211 71.36108398 6.00317383 C72.55588379 6.25881104 73.75068359 6.51444824 74.98168945 6.77783203 C125.32899842 17.88921353 172.09404194 40.60901536 211.92358398 73.31567383 C212.48271484 73.77039063 213.0418457 74.22510742 213.61791992 74.69360352 C222.48163305 81.95219725 230.68146695 89.86828771 238.79858398 97.94067383 C239.28495331 98.42177612 239.77132263 98.90287842 240.27243042 99.39855957 C246.95369173 106.02375889 253.06508597 112.95207999 258.92358398 120.31567383 C259.91170901 121.50136289 260.903321 122.68416494 261.90014648 123.86254883 C275.23650346 139.87259603 286.40502998 157.80185711 295.92358398 176.31567383 C296.3612207 177.16500488 296.79885742 178.01433594 297.24975586 178.8894043 C335.98168402 254.93858382 342.62245862 345.1061686 316.92358398 426.31567383 C305.23545116 462.08917238 287.78854997 497.0932665 263.92358398 526.31567383 C263.16561523 527.26442383 262.40764648 528.21317383 261.62670898 529.19067383 C257.25727056 534.61480428 252.71884293 539.85003773 248.02514648 544.99536133 C246.20075605 547.00965114 244.43264596 549.05715997 242.67358398 551.12817383 C235.05487855 559.84030458 226.77983064 567.91586478 217.70092773 575.09301758 C215.25671037 577.04907901 212.8981892 579.07621549 210.54736328 581.14257812 C146.64738592 636.82898529 59.8544833 657.72109445 -23.18237305 653.11352539 C-87.21602476 648.53166561 -149.83734486 622.11483435 -199.41137695 581.67211914 C-200.98073395 580.39362244 -202.56333655 579.13143432 -204.14672852 577.87036133 C-212.73764419 570.87610595 -220.54501052 563.05931278 -228.38891602 555.25317383 C-228.94881226 554.69854462 -229.5087085 554.14391541 -230.08557129 553.57247925 C-237.21965204 546.49028985 -243.86993485 539.24250159 -250.07641602 531.31567383 C-250.63820557 530.61321533 -251.19999512 529.91075684 -251.77880859 529.18701172 C-264.92612686 512.69280469 -276.38313019 495.04872452 -286.07641602 476.31567383 C-286.54934082 475.40253418 -287.02226562 474.48939453 -287.50952148 473.54858398 C-326.34609789 397.65738927 -332.55258171 307.48985007 -307.05444336 226.32568359 C-292.37077043 181.26390291 -267.91832834 141.24796239 -236.07641602 106.31567383 C-234.55542349 104.60748223 -233.03458963 102.89914933 -231.51391602 101.19067383 C-225.81527924 94.86874866 -219.90174757 88.87777954 -213.43579102 83.33911133 C-211.63980126 81.79884197 -209.8616972 80.23769037 -208.09204102 78.66723633 C-165.67237385 41.24696281 -112.62718475 15.87416963 -57.26391602 5.00317383 C-56.03793701 4.76058838 -54.81195801 4.51800293 -53.54882812 4.26806641 C-35.70991205 0.91949673 -18.13655541 -0.03434713 0 0 Z M255.92358398 279.31567383 C256.92358398 282.31567383 256.92358398 282.31567383 256.92358398 282.31567383 Z M256.92358398 283.31567383 C257.92358398 285.31567383 257.92358398 285.31567383 257.92358398 285.31567383 Z M257.92358398 286.31567383 C258.70696663 292.90663356 259.72266603 299.44001556 260.81811523 305.9855957 C269.72543621 360.82410211 256.18308087 419.29083593 223.97436523 464.51489258 C212.02147151 480.89993418 198.86989868 495.72086035 182.92358398 508.31567383 C181.9709668 509.0968457 181.01834961 509.87801758 180.03686523 510.68286133 C148.57546926 535.90031828 108.96591009 551.38906032 68.92358398 555.31567383 C67.80338867 555.4265332 66.68319336 555.53739258 65.52905273 555.65161133 C8.76549281 560.45218668 -47.92263088 543.3821729 -92.07641602 507.31567383 C-95.31115906 504.53338021 -98.42800678 501.63989755 -101.52954102 498.71020508 C-103.59907137 496.76446565 -105.69510731 494.92884424 -107.88891602 493.12817383 C-111.71415739 489.87031275 -114.87998672 486.18280946 -118.07641602 482.31567383 C-118.50583496 481.80391602 -118.93525391 481.2921582 -119.37768555 480.76489258 C-132.68047046 464.86187248 -142.76227164 447.80510805 -152.07641602 429.31567383 C-153.45714095 432.36863904 -153.45714095 432.36863904 -151.77563477 435.47583008 C-151.11681014 436.78260091 -150.44523172 438.08298705 -149.76391602 439.37817383 C-149.40072266 440.08135742 -149.0375293 440.78454102 -148.66333008 441.5090332 C-147.47956671 443.78434467 -146.27822794 446.04985262 -145.07641602 448.31567383 C-144.6898584 449.05930176 -144.30330078 449.80292969 -143.9050293 450.5690918 C-137.95072675 461.99747107 -131.1426939 472.27321171 -123.07641602 482.31567383 C-122.63749023 482.87029297 -122.19856445 483.42491211 -121.74633789 483.99633789 C-109.96940611 498.80290784 -96.40428426 512.21995724 -81.07641602 523.31567383 C-80.03356445 524.08008789 -78.99071289 524.84450195 -77.91625977 525.63208008 C-29.53697956 560.1030666 29.4249539 572.95359344 87.92358398 563.31567383 C140.01782435 553.66012421 188.37435199 524.17998209 220.92358398 482.31567383 C221.34897461 481.77201172 221.77436523 481.22834961 222.21264648 480.66821289 C241.9210874 455.29791723 255.75298312 425.89413009 262.73608398 394.56567383 C262.93113525 393.69249512 263.12618652 392.81931641 263.32714844 391.91967773 C266.43630767 377.02808051 267.30368791 362.23506836 267.23608398 347.06567383 C267.23426117 346.21194183 267.23243835 345.35820984 267.2305603 344.47860718 C267.15796907 324.24504232 264.2266942 305.83028097 258.92358398 286.31567383 C258.59358398 286.31567383 258.26358398 286.31567383 257.92358398 286.31567383 Z M-159.07641602 414.31567383 C-158.07641602 416.31567383 -158.07641602 416.31567383 -158.07641602 416.31567383 Z M-158.07641602 417.31567383 C-157.07641602 419.31567383 -157.07641602 419.31567383 -157.07641602 419.31567383 Z M-157.07641602 419.31567383 C-156.07641602 421.31567383 -156.07641602 421.31567383 -156.07641602 421.31567383 Z M-156.07641602 422.31567383 C-155.07641602 424.31567383 -155.07641602 424.31567383 -155.07641602 424.31567383 Z M-155.07641602 424.31567383 C-154.07641602 427.31567383 -154.07641602 427.31567383 -154.07641602 427.31567383 Z M-154.07641602 427.31567383 C-153.07641602 429.31567383 -153.07641602 429.31567383 -153.07641602 429.31567383 Z " fill="#FEFEFE" transform="translate(611.076416015625,300.684326171875)"/>
<path d="M0 0 C1.12373016 -0.00570007 2.24746033 -0.01140015 3.40524292 -0.01727295 C5.77682573 -0.02666763 8.14842128 -0.03323474 10.52001953 -0.03710938 C14.05916747 -0.04671749 17.59770898 -0.07775464 21.13671875 -0.109375 C40.82691351 -0.20112392 60.25462242 1.40788728 79.5546875 5.453125 C80.57022705 5.66219482 81.5857666 5.87126465 82.63208008 6.08666992 C93.93853239 8.49832931 104.99291984 11.65908304 115.9921875 15.203125 C116.889375 15.48994141 117.7865625 15.77675781 118.7109375 16.07226562 C152.72046434 27.15036885 184.85277672 45.25273418 212.9921875 67.203125 C213.85070313 67.86828125 214.70921875 68.5334375 215.59375 69.21875 C220.79640547 73.31000229 225.75829361 77.61090121 230.64453125 82.07421875 C232.62477554 83.86994777 234.637841 85.60380106 236.6796875 87.328125 C246.13164268 95.58898014 255.07928739 104.62271852 262.8359375 114.4921875 C264.77964171 116.93590258 266.80371127 119.28382264 268.86621094 121.62719727 C317.80711907 177.67999393 341.29084358 253.82280532 341.1796875 327.265625 C341.17875092 328.07427002 341.17781433 328.88291504 341.17684937 329.71606445 C340.9763708 410.01020021 310.54083859 487.37837196 255.765625 546.18359375 C253.6749733 548.43134865 251.66941097 550.7395698 249.671875 553.0703125 C245.93298566 557.35850048 241.90282744 561.26519974 237.7421875 565.140625 C236.9891333 565.84372803 236.2360791 566.54683105 235.46020508 567.27124023 C229.82059936 572.50201233 224.08776925 577.50652923 217.9921875 582.203125 C216.96714111 583.00435791 216.96714111 583.00435791 215.92138672 583.82177734 C203.4653651 593.53204594 190.63633424 602.25049378 176.9921875 610.203125 C176.11868652 610.71472168 175.24518555 611.22631836 174.34521484 611.75341797 C126.88822099 639.28458662 72.92346662 653.41701635 18.1796875 653.453125 C16.79449417 653.45413712 16.79449417 653.45413712 15.38131714 653.45516968 C-74.05166093 653.35207746 -155.47808518 618.64958048 -219.0078125 556.203125 C-227.56438732 547.59448637 -235.39920561 538.54509223 -242.72851562 528.87646484 C-243.97451389 527.24668009 -245.24384099 525.63864439 -246.5234375 524.03515625 C-256.64934424 511.27702988 -265.16471304 497.48885636 -272.92382812 483.18603516 C-273.98974665 481.23617249 -275.08228325 479.30337241 -276.1796875 477.37109375 C-316.38380959 405.45982754 -322.90221411 315.13823142 -300.87890625 236.51953125 C-283.28587081 176.19923881 -247.61742828 116.6171361 -197.66015625 77.296875 C-194.83461769 75.06640568 -192.11534558 72.73385554 -189.3828125 70.390625 C-137.74410164 27.44686417 -67.29151196 0.27340841 0 0 Z M172.9921875 268.203125 C173.9921875 270.203125 173.9921875 270.203125 173.9921875 270.203125 Z M173.9921875 271.203125 C174.9921875 273.203125 174.9921875 273.203125 174.9921875 273.203125 Z M174.9921875 274.203125 C175.9921875 277.203125 175.9921875 277.203125 175.9921875 277.203125 Z M175.9921875 277.203125 C176.99609733 282.73973809 178.00400645 288.27553503 179.02734375 293.80859375 C179.36979167 295.66927083 179.71223958 297.52994792 180.0546875 299.390625 C180.22806641 300.32326172 180.40144531 301.25589844 180.58007812 302.21679688 C180.74830078 303.13396484 180.91652344 304.05113281 181.08984375 304.99609375 C181.23945557 305.8058667 181.38906738 306.61563965 181.54321289 307.44995117 C182.62570486 314.08794028 183.15789101 320.49899316 183.1953125 327.21484375 C183.20232681 328.05704971 183.20934113 328.89925568 183.21656799 329.76698303 C183.23400296 332.4749185 183.2404216 335.18263544 183.2421875 337.890625 C183.24286224 338.81452026 183.24353699 339.73841553 183.24423218 340.69030762 C183.2286517 354.09184836 182.84286999 367.06217402 179.9921875 380.203125 C179.82058105 381.04568848 179.64897461 381.88825195 179.47216797 382.75634766 C176.75331573 395.96185426 172.85603957 408.6350594 167.9921875 421.203125 C167.72180664 421.90244141 167.45142578 422.60175781 167.17285156 423.32226562 C153.22081071 458.67198969 127.62756558 490.86352482 96.9921875 513.203125 C95.94675781 513.97011719 94.90132812 514.73710938 93.82421875 515.52734375 C45.93247478 549.6167466 -13.18774088 562.78618403 -71.1171875 553.23828125 C-128.88443086 542.92706111 -178.99157982 510.3514141 -212.74609375 462.46484375 C-214.8711965 459.40014463 -216.95121802 456.31390064 -219.0078125 453.203125 C-219.5028125 454.193125 -219.5028125 454.193125 -220.0078125 455.203125 C-218.65037088 457.73193198 -217.24253347 460.10561131 -215.6953125 462.515625 C-215.240354 463.23186035 -214.78539551 463.9480957 -214.31665039 464.68603516 C-208.02426202 474.45012343 -200.95237061 483.41422872 -193.0703125 491.953125 C-191.25724156 493.93102058 -189.53742236 495.95509317 -187.8203125 498.015625 C-153.38069876 537.38654602 -99.95399261 561.73368008 -48.33984375 565.890625 C13.24255221 569.96908283 70.26456713 550.03135887 116.73583984 509.68945312 C122.94851602 504.23229925 128.70232526 498.56004099 133.9921875 492.203125 C135.20261719 490.841875 135.20261719 490.841875 136.4375 489.453125 C173.5355437 447.46968683 191.34352083 391.14714614 188.72070312 335.53466797 C187.52040847 304.42905974 187.52040847 304.42905974 175.9921875 277.203125 Z M-229.0078125 436.203125 C-228.0078125 438.203125 -228.0078125 438.203125 -228.0078125 438.203125 Z M-228.0078125 438.203125 C-227.0078125 440.203125 -227.0078125 440.203125 -227.0078125 440.203125 Z M-227.0078125 440.203125 C-226.0078125 442.203125 -226.0078125 442.203125 -226.0078125 442.203125 Z M-226.0078125 442.203125 C-225.0078125 444.203125 -225.0078125 444.203125 -225.0078125 444.203125 Z M-225.0078125 444.203125 C-224.0078125 446.203125 -224.0078125 446.203125 -224.0078125 446.203125 Z M-224.0078125 446.203125 C-223.0078125 448.203125 -223.0078125 448.203125 -223.0078125 448.203125 Z M-223.0078125 448.203125 C-222.6778125 449.193125 -222.3478125 450.183125 -222.0078125 451.203125 C-222.0078125 450.213125 -222.0078125 449.223125 -222.0078125 448.203125 C-222.3378125 448.203125 -222.6678125 448.203125 -223.0078125 448.203125 Z M-221.0078125 451.203125 C-220.0078125 453.203125 -220.0078125 453.203125 -220.0078125 453.203125 Z " fill="#FEFEFE" transform="translate(2116.0078125,300.796875)"/>
<path d="M0 0 C0.57975586 0.5053125 1.15951172 1.010625 1.75683594 1.53125 C38.05823604 33.48480333 61.83135208 75.89169035 72 123 C72.18079102 123.80969238 72.36158203 124.61938477 72.54785156 125.45361328 C77.91703705 150.59698588 77.43977213 180.92397726 72 206 C71.82839355 206.84256348 71.65678711 207.68512695 71.47998047 208.55322266 C68.76112823 221.75872926 64.86385207 234.4319344 60 247 C59.72961914 247.69931641 59.45923828 248.39863281 59.18066406 249.11914062 C45.08270531 284.838571 18.9899279 317.48345251 -12 340 C-13.04414063 340.76570313 -14.08828125 341.53140625 -15.1640625 342.3203125 C-63.04611456 376.41993766 -122.18556513 389.58212998 -180.109375 380.03515625 C-218.58628977 373.16718203 -254.420953 356.61056331 -284 331 C-284.81597656 330.29488281 -285.63195313 329.58976562 -286.47265625 328.86328125 C-329.245525 291.10656509 -356.06784788 238.20790932 -360 181 C-363.04754337 119.81788268 -343.74363602 62.83629273 -302.71118164 17.17211914 C-292.76696105 6.25912974 -281.94729046 -3.33500837 -270 -12 C-269.46133301 -12.39509766 -268.92266602 -12.79019531 -268.36767578 -13.19726562 C-188.13190221 -71.40332992 -74.18829048 -64.71153932 0 0 Z " fill="#000000" transform="translate(2225,475)"/>
<path d="M0 0 C0.73202637 0.31662598 1.46405273 0.63325195 2.21826172 0.95947266 C19.00576429 8.33924898 34.69595704 17.49757649 49 29 C50.47919922 30.17369141 50.47919922 30.17369141 51.98828125 31.37109375 C66.56485821 43.17773128 80.13054014 56.68473154 91 72 C91.4218457 72.59345215 91.84369141 73.1869043 92.27832031 73.79833984 C106.36154914 93.83740128 118.45660015 116.31554919 125 140 C125.20963379 140.74975098 125.41926758 141.49950195 125.63525391 142.27197266 C140.47056576 196.55201685 134.16562652 256.83123858 106.77001953 306.21728516 C92.68075123 330.88013306 74.34238764 353.41066773 52 371 C51.04867188 371.77988281 50.09734375 372.55976562 49.1171875 373.36328125 C17.65965824 398.58562249 -21.95862068 414.07347934 -62 418 C-63.12019531 418.11085938 -64.24039063 418.22171875 -65.39453125 418.3359375 C-122.1680221 423.13735273 -178.83286335 406.05814384 -223 370 C-226.21324685 367.24036674 -229.30764475 364.36918331 -232.38671875 361.4609375 C-234.64358265 359.33563966 -236.94568404 357.31275364 -239.3125 355.3125 C-243.2825499 351.84581021 -246.65127091 348.06355396 -250 344 C-250.64195312 343.23453857 -250.64195312 343.23453857 -251.296875 342.45361328 C-275.32105324 313.73515022 -292.13423273 279.92669423 -299 243 C-299.16226074 242.13810059 -299.32452148 241.27620117 -299.49169922 240.38818359 C-304.09655623 214.52209821 -304.68720045 184.73571346 -299 159 C-298.79068848 158.03610352 -298.58137695 157.07220703 -298.36572266 156.07910156 C-295.53228272 143.33764557 -292.07266954 131.02887458 -287 119 C-286.70899414 118.29214355 -286.41798828 117.58428711 -286.11816406 116.85498047 C-268.39099191 73.94396851 -237.38271011 40.37601634 -199 15 C-198.15308594 14.43667969 -197.30617188 13.87335938 -196.43359375 13.29296875 C-139.34395328 -22.74796949 -61.36238673 -26.5716302 0 0 Z " fill="#000000" transform="translate(742,439)"/>
<path d="M0 0 C1.71917633 0.00140488 1.71917633 0.00140488 3.4730835 0.00283813 C21.99358022 0.0355189 40.36716714 0.37264886 58.8125 2.1875 C59.58303711 2.26291016 60.35357422 2.33832031 61.14746094 2.41601562 C149.33657391 11.16146515 235.33728779 35.881842 410.13427734 145.75195312 C411.90214519 147.26418224 413.67885317 148.76553722 415.45703125 150.265625 C421.20083383 155.12599998 426.79700006 160.00220576 432.0390625 165.41015625 C433.81117723 167.18617431 435.65226147 168.81184803 437.5625 170.4375 C445.21533011 177.03372635 452.36978782 184.31429934 458.9140625 192.0078125 C460.93223658 194.32497533 463.0155595 196.56928457 465.11328125 198.81420898 C470.95422191 205.0691245 476.47299384 211.49519949 481.8125 218.1875 C482.73341185 219.31719208 483.65534111 220.44605532 484.578125 221.57421875 C531.85491059 279.62352564 566.14895089 347.42761038 589.8125 418.1875 C590.21952148 419.40050781 590.62654297 420.61351562 591.04589844 421.86328125 C616.77833302 499.4272668 623.39238189 578.45028509 627.15527344 659.57324219 C630.15937695 753.37655519 630.15937695 753.37655519 671.8125 835.1875 C672.91658203 836.51007813 672.91658203 836.51007813 674.04296875 837.859375 C693.97921372 860.88525011 724.32371379 876.78766085 754.8125 879.1875 C789.73620505 880.89897931 821.50269729 871.12886959 847.90454102 847.81982422 C905.67950548 795.29403559 903.55865646 708.85970841 907.17138672 637.0546875 C911.52930292 550.7705619 923.87213316 467.3500482 974.8125 340.1875 C975.16086914 339.46433594 975.50923828 338.74117188 975.86816406 337.99609375 C977.76364354 334.08843198 979.71367371 330.21168348 981.70214844 326.35058594 C982.96102761 323.89815201 984.20219793 321.437023 985.4453125 318.9765625 C996.18843953 297.88123332 1008.36407946 277.66609219 1021.8125 258.1875 C1022.29251465 257.48753906 1022.7725293 256.78757812 1023.26708984 256.06640625 C1033.85263622 240.66667912 1045.24632363 225.90392177 1057.46044922 211.76171875 C1058.85124116 210.14239292 1060.22578772 208.51037783 1061.59765625 206.875 C1072.24935656 194.22406862 1083.65043128 182.28235622 1095.3125 170.5625 C1095.94639648 169.92393066 1096.58029297 169.28536133 1097.23339844 168.62744141 C1101.01686155 164.85688775 1104.92238384 161.28207783 1108.96435547 157.79052734 C1111.39718985 155.68035686 1113.75954524 153.4976946 1116.125 151.3125 C1121.52741457 146.3917822 1127.11418859 141.75957447 1132.8125 137.1875 C1133.93270516 136.27524711 1135.05247705 135.36246197 1136.171875 134.44921875 C1189.04702539 91.48319366 1249.68295013 58.85984971 1313.8125 36.1875 C1314.86630859 35.81028809 1315.92011719 35.43307617 1317.00585938 35.04443359 C1361.00849255 19.38834557 1407.21105327 9.62015688 1453.58337402 4.4375 C1455.74675678 4.19487321 1457.90898047 3.94339851 1460.07128906 3.69140625 C1505.13483883 -1.44431003 1552.77607845 -1.06229948 1597.8125 4.1875 C1598.91878754 4.31478485 1598.91878754 4.31478485 1600.04742432 4.44464111 C1661.05313569 11.52937698 1721.1695049 26.26929973 1777.8125 50.1875 C1778.9070752 50.64946777 1780.00165039 51.11143555 1781.12939453 51.58740234 C1807.98274396 63.0276273 1833.83385078 76.09132616 1858.8125 91.1875 C1860.41748749 92.14273617 1862.02293298 93.09720335 1863.62890625 94.05078125 C1886.66397053 107.81849677 1908.4284549 123.65321231 1929.08447266 140.76367188 C1930.6433644 142.04813877 1932.21730439 143.31428937 1933.79296875 144.578125 C1939.89743714 149.47579372 1945.67099033 154.65270083 1951.37890625 160 C1954.04105717 162.49286956 1956.75758866 164.91793236 1959.484375 167.33984375 C1964.83120329 172.14208302 1969.93996702 177.1629083 1975.0090332 182.25366211 C1976.50554925 183.75556925 1978.007383 185.25201062 1979.50976562 186.74804688 C1984.82406262 192.05867876 1989.93381745 197.47451371 1994.8125 203.1875 C1996.26695517 204.79518373 1997.72470895 206.39989715 1999.1875 208 C2039.70501367 253.01189334 2071.22291392 306.05710417 2095.8125 361.1875 C2096.31346191 362.29996094 2096.81442383 363.41242188 2097.33056641 364.55859375 C2130.92181701 439.45342761 2150.11584477 520.78659072 2098.8125 870.1875 C2085.98804426 903.68961307 2071.76342651 936.58273294 2056.74829102 969.15447998 C2055.85731857 971.09013098 2054.97001316 973.02741404 2054.08398438 974.96533203 C2044.49618836 995.91134366 2034.23690411 1016.52259879 2023.9375 1037.125 C2023.59984619 1037.80083004 2023.26219238 1038.47666008 2022.91430664 1039.17296982 C2015.3719041 1054.26848853 2007.77452838 1069.32688466 1999.85101318 1084.2270813 C1997.13197549 1089.35985421 1994.47922016 1094.52742801 1991.8125 1099.6875 C1987.8373101 1107.36742952 1983.85079362 1115.04055424 1979.8125 1122.6875 C1970.55209935 1140.24331653 1961.39029564 1157.8469067 1952.60229492 1175.64477539 C1949.98720108 1180.92082659 1947.31013481 1186.15675351 1944.54864502 1191.3572998 C1939.85527663 1200.19764654 1935.31092024 1209.10575189 1930.84375 1218.0625 C1930.5389547 1218.67353073 1930.23415939 1219.28456146 1929.92012787 1219.91410828 C1927.71472435 1224.33714956 1925.51320836 1228.76212117 1923.3125 1233.1875 C1920.80467331 1238.23045951 1918.29526651 1243.27262287 1915.78125 1248.3125 C1915.32164383 1249.23399338 1915.32164383 1249.23399338 1914.85275269 1250.17410278 C1911.28282288 1257.32543215 1907.66447853 1264.44553238 1903.90625 1271.5 C1899.52788184 1279.72257633 1895.3457911 1288.03974385 1891.1875 1296.375 C1890.84899521 1297.05344971 1890.51049042 1297.73189941 1890.16172791 1298.4309082 C1887.70913859 1303.34835576 1885.26042888 1308.26773119 1882.8125 1313.1875 C1880.0233982 1318.79294718 1877.23273925 1324.39761037 1874.4375 1330 C1874.10086838 1330.67478394 1873.76423676 1331.34956787 1873.41740417 1332.0447998 C1869.09445437 1340.70338416 1864.6981198 1349.31692602 1860.1541748 1357.86206055 C1856.06125643 1365.56499307 1852.18240695 1373.37076415 1848.3125 1381.1875 C1843.57171255 1390.76330731 1838.73979667 1400.2779569 1833.74121094 1409.7220459 C1828.49170849 1419.65581971 1823.40949041 1429.67488864 1818.3125 1439.6875 C1811.96316848 1452.16023072 1805.57169637 1464.60574578 1799.03222656 1476.97998047 C1796.63580091 1481.51544544 1794.27611369 1486.0694675 1791.921875 1490.62695312 C1786.84805237 1500.44747035 1781.65974782 1510.19302322 1776.33251953 1519.87817383 C1772.55779674 1526.76342172 1768.91633743 1533.71148511 1765.3125 1540.6875 C1759.80489662 1551.34212881 1754.11387764 1561.88373527 1748.33935547 1572.39550781 C1746.21154037 1576.28640858 1744.11062584 1580.19162628 1742.00756836 1584.09594727 C1736.65601974 1594.02516273 1731.19348039 1603.88196278 1725.61523438 1613.68554688 C1721.95760289 1620.12491495 1718.39468392 1626.60938074 1714.875 1633.125 C1710.17278146 1641.81479298 1705.24865976 1650.35605696 1700.23681641 1658.87036133 C1695.78739667 1666.45313237 1691.49452508 1674.11343343 1687.25 1681.8125 C1681.17788291 1692.81411471 1674.87748742 1703.65659699 1668.44384766 1714.44970703 C1657.72647243 1732.43603535 1647.53475334 1750.64521935 1637.8125 1769.1875 C1637.28819397 1770.18520416 1637.28819397 1770.18520416 1636.7532959 1771.20306396 C1596.60975461 1847.60798948 1566.83865905 1927.00226145 1540.8125 2009.1875 C1513.64109958 2094.93026831 1484.91775992 2180.74648564 1421.8125 2268.1875 C1420.77609375 2269.52554688 1420.77609375 2269.52554688 1419.71875 2270.890625 C1412.42573073 2280.15634621 1404.87476175 2289.45088702 1396.3671875 2297.6328125 C1394.67705958 2299.32294042 1393.16148869 2301.10694649 1391.625 2302.9375 C1386.81057183 2308.50083922 1381.31278339 2313.32230088 1375.8125 2318.1875 C1374.99386475 2318.91525635 1374.99386475 2318.91525635 1374.15869141 2319.65771484 C1320.44951594 2367.21255041 1256.10947954 2389.83311698 1184.8125 2391.1875 C1183.46164307 2391.22037109 1183.46164307 2391.22037109 1182.08349609 2391.25390625 C1128.74062793 2392.48418574 1078.88473663 2377.17635093 1030.8125 2355.1875 C1030.01134766 2354.82414551 1029.21019531 2354.46079102 1028.38476562 2354.08642578 C1017.90050253 2349.32105902 1007.6915184 2344.089668 997.54248047 2338.65039062 C994.55305913 2337.0484757 991.55962642 2335.45417947 988.56640625 2333.859375 C977.49863725 2327.94598419 966.51185911 2321.92395473 955.640625 2315.65673828 C937.65222764 2305.3154664 919.25888 2295.68190816 900.8125 2286.1875 C900.07596191 2285.80754883 899.33942383 2285.42759766 898.58056641 2285.03613281 C839.591877 2254.71027259 776.10748677 2237.40017075 710.98413086 2257.83544922 C678.29048456 2268.53985669 647.45858394 2284.34209515 617.74072266 2301.51171875 C612.25614918 2304.65046415 606.71790565 2307.69298991 601.1875 2310.75 C594.12014374 2314.66138366 587.07011648 2318.59467607 580.07983398 2322.64233398 C524.82265279 2354.60961624 466.82697892 2380.18383375 402.8125 2387.1875 C401.97799316 2387.28321289 401.14348633 2387.37892578 400.28369141 2387.47753906 C389.78437167 2388.52578032 379.22825485 2388.43126862 368.6875 2388.4375 C367.14965851 2388.43851212 367.14965851 2388.43851212 365.58074951 2388.43954468 C349.7975693 2388.42305861 334.39406872 2387.93167662 318.8125 2385.1875 C317.3284668 2384.93009033 317.3284668 2384.93009033 315.81445312 2384.66748047 C285.79073283 2379.2868682 256.68993025 2369.68062706 229.8125 2355.1875 C229.09545898 2354.80625977 228.37841797 2354.42501953 227.63964844 2354.03222656 C206.00374109 2342.49369583 186.19696316 2328.40893348 167.8125 2312.1875 C166.72352417 2311.2298877 166.72352417 2311.2298877 165.61254883 2310.25292969 C159.45998067 2304.78479429 153.54389986 2299.10516793 147.72583008 2293.28613281 C146.25294028 2291.8154359 144.77219735 2290.35296466 143.29101562 2288.890625 C137.02154341 2282.65812562 131.30807715 2276.11679389 125.8125 2269.1875 C124.72761213 2267.87067914 123.63943821 2266.5565534 122.546875 2265.24609375 C103.28192407 2241.94585245 87.28801801 2216.69644486 72.8125 2190.1875 C72.31540527 2189.28515625 71.81831055 2188.3828125 71.30615234 2187.453125 C64.86244927 2175.69947089 59.09446215 2163.69531092 53.6875 2151.4375 C53.41543732 2150.82609161 53.14337463 2150.21468323 52.86306763 2149.58474731 C42.85402714 2126.99651581 35.06794663 2103.45441065 27.1875 2080.0625 C26.74472416 2078.75283256 26.3017478 2077.44323289 25.85858154 2076.13369751 C20.36732817 2059.90466398 14.96100154 2043.64913726 9.640625 2027.36328125 C9.38402981 2026.57790733 9.12743462 2025.79253342 8.86306381 2024.98336029 C7.82770383 2021.814054 6.79254336 2018.64468257 5.75742912 2015.47529602 C-6.63212288 1977.54481875 -19.28410827 1939.82203665 -35.1875 1903.1875 C-35.63449249 1902.15619965 -35.63449249 1902.15619965 -36.09051514 1901.10406494 C-45.0103832 1880.54783141 -54.3006093 1860.20395341 -64.23443604 1840.11578369 C-65.2432627 1838.07467829 -66.24942398 1836.03227208 -67.25537109 1833.98974609 C-75.38173923 1817.50429662 -83.62958359 1801.12013216 -92.58740234 1785.06689453 C-94.4021852 1781.80117146 -96.19629119 1778.52435081 -97.98828125 1775.24609375 C-105.9325392 1760.72949868 -114.07541828 1746.35122873 -122.47851562 1732.09375 C-124.77545907 1728.1876336 -127.05256667 1724.27010922 -129.33032227 1720.3527832 C-136.81059435 1707.49346275 -144.38467428 1694.69056323 -151.98242188 1681.90039062 C-153.93932743 1678.60592048 -155.89456333 1675.31046208 -157.84941101 1672.01477051 C-159.53064428 1669.1804164 -161.21225778 1666.34628801 -162.89395142 1663.51220703 C-163.69723741 1662.15841554 -164.50044343 1660.80457659 -165.30355835 1659.45068359 C-169.46568396 1652.43492967 -173.63915448 1645.42633697 -177.83984375 1638.43359375 C-188.88992592 1620.03286972 -199.38914745 1601.40670177 -209.44726562 1582.45019531 C-211.94931125 1577.75921079 -214.50369801 1573.09768904 -217.0625 1568.4375 C-222.70067611 1558.14679587 -228.20292423 1547.78554417 -233.6965332 1537.41723633 C-237.74400557 1529.77953554 -241.81237422 1522.15406984 -245.91015625 1514.54321289 C-252.93490279 1501.49206157 -259.78173677 1488.35849511 -266.55812073 1475.17732239 C-266.88312057 1474.54517319 -267.20812042 1473.91302399 -267.54296875 1473.26171875 C-267.8622081 1472.640728 -268.18144745 1472.01973724 -268.51036072 1471.37992859 C-271.08139542 1466.38327563 -273.68575555 1461.40504367 -276.3125 1456.4375 C-282.05645043 1445.56942382 -287.70244433 1434.65073754 -293.35205078 1423.73339844 C-295.13831906 1420.2825125 -296.92639416 1416.83256836 -298.71484375 1413.3828125 C-327.55833594 1357.71944841 -327.55833594 1357.71944841 -338.05932617 1336.40698242 C-340.02108908 1332.44256219 -342.01342521 1328.49874752 -344.09472656 1324.59570312 C-349.87371768 1313.75397382 -355.42080179 1302.80477839 -360.90625 1291.8125 C-361.49517092 1290.63249798 -361.49517092 1290.63249798 -362.09598923 1289.42865753 C-365.37813895 1282.85025751 -368.65508815 1276.26926961 -371.9319458 1269.68823242 C-374.38516221 1264.76179302 -376.84017293 1259.83625514 -379.29737854 1254.9118042 C-380.42322752 1252.65379994 -381.54659347 1250.39457354 -382.6697998 1248.13525391 C-386.25394963 1240.94179464 -389.90890609 1233.79561479 -393.68164062 1226.69921875 C-400.98180493 1212.93126566 -407.86208613 1198.9465778 -414.81487656 1185.00120926 C-416.82903853 1180.96275205 -418.84589889 1176.92564296 -420.86254883 1172.88842773 C-426.4058355 1161.78991805 -431.94506831 1150.68938641 -437.48423767 1139.58882141 C-442.56942765 1129.39814356 -447.65552171 1119.20791945 -452.74487972 1109.0193224 C-454.74162397 1105.02171452 -456.73752676 1101.02369146 -458.73135376 1097.02462769 C-466.06890951 1082.30789219 -473.40523786 1067.6001176 -481.12762451 1053.08016968 C-484.18914064 1047.31918448 -487.10149162 1041.48517146 -490.0078125 1035.64453125 C-490.59617889 1034.46638351 -491.18454529 1033.28823578 -491.79074097 1032.0743866 C-493.32482067 1029.00249353 -494.85650062 1025.92941076 -496.38757324 1022.85601807 C-497.93009127 1019.76070127 -499.47489698 1016.66652675 -501.01953125 1013.57226562 C-503.37722337 1008.84876545 -505.73354148 1004.12458315 -508.08886719 999.39990234 C-510.27636584 995.0125804 -512.46770888 990.62721904 -514.66342163 986.2440033 C-550.97828461 913.73860091 -582.91702557 837.65645802 -614.1875 683.1875 C-614.32381836 682.12018646 -614.32381836 682.12018646 -614.46289062 681.03131104 C-619.95334465 637.64528582 -619.49495299 591.5653815 -614.1875 548.1875 C-614.10028687 547.46612854 -614.01307373 546.74475708 -613.92321777 546.00152588 C-604.0367915 464.91906848 -579.08492829 387.15925057 -527.1875 293.1875 C-526.40318604 291.90770264 -526.40318604 291.90770264 -525.60302734 290.60205078 C-518.80859752 279.5587099 -511.66529347 268.7787242 -504.1875 258.1875 C-503.68105957 257.4670752 -503.17461914 256.74665039 -502.65283203 256.00439453 C-495.3551236 245.65193588 -487.71572377 235.67348606 -479.62744141 225.92724609 C-477.6080368 223.48738899 -475.61879039 221.02330436 -473.625 218.5625 C-458.87768054 200.58326338 -458.87768054 200.58326338 -451.86889648 193.86987305 C-450.16572948 192.16571684 -448.60919072 190.39225655 -447.046875 188.55859375 C-442.97755765 183.8791734 -438.64461293 179.49736172 -434.25 175.125 C-433.49009766 174.36123047 -432.73019531 173.59746094 -431.94726562 172.81054688 C-427.76287249 168.63330044 -423.49270182 164.62419677 -419.01196289 160.7668457 C-416.40601311 158.51100613 -413.8971015 156.16175818 -411.375 153.8125 C-405.8308473 148.69744773 -400.07770796 143.90122462 -394.1875 139.1875 C-393.05666043 138.26509625 -391.92648485 137.34187804 -390.796875 136.41796875 C-359.58898741 111.00510816 -325.10722405 89.29141351 -289.57324219 70.46044922 C-287.39350868 69.29741908 -285.22978113 68.1102717 -283.0703125 66.91015625 C-207.58384549 25.31042709 -118.52880312 5.02894577 0 0 Z M-55.1875 11.1875 C-55.84615051 11.2483075 -56.50480103 11.30911499 -57.18341064 11.37176514 C-126.0064402 17.73002659 -193.42438338 35.15435958 -256.1875 64.1875 C-257.2192334 64.66155273 -258.2509668 65.13560547 -259.31396484 65.62402344 C-273.7441628 72.2861688 -287.6986845 79.56307096 -301.42285156 87.57714844 C-304.09332295 89.13264378 -306.77552301 90.66579817 -309.4609375 92.1953125 C-350.17662485 115.58645979 -389.64752601 143.97220283 -422.56640625 177.6015625 C-424.26859702 179.26683829 -426.05046507 180.78272633 -427.875 182.3125 C-433.19392052 186.90657723 -437.79944189 192.16833019 -442.51513672 197.36230469 C-444.24475479 199.24998712 -445.9954219 201.11575768 -447.75390625 202.9765625 C-454.54292826 210.16111485 -461.02180663 217.4544334 -467.1875 225.1875 C-468.16729687 226.37792953 -469.14921168 227.56661783 -470.1328125 228.75390625 C-495.91948691 259.9562563 -517.77210393 294.10671253 -536.87255859 329.74560547 C-538.01159204 331.86083245 -539.16609684 333.96594001 -540.33203125 336.06640625 C-579.25938161 407.02359275 -600.73806427 489.81214679 -607.1875 570.1875 C-607.2817627 571.30253906 -607.37602539 572.41757812 -607.47314453 573.56640625 C-608.48332655 587.17043169 -608.43021468 600.80259887 -608.4375 614.4375 C-608.43850708 615.74607971 -608.43951416 617.05465942 -608.44055176 618.40289307 C-608.42959815 639.49534455 -607.67632313 660.24509603 -605.1875 681.1875 C-604.98664795 682.98501709 -604.98664795 682.98501709 -604.78173828 684.81884766 C-595.19126832 769.20335854 -566.69984676 850.45077621 -527.1875 938.1875 C-526.89552734 938.82860718 -526.60355469 939.46971436 -526.30273438 940.13024902 C-520.30230289 953.29036393 -514.14038979 966.37465671 -507.88140869 979.41360474 C-507.04679676 981.1525 -506.21449168 982.89250194 -505.38232422 984.63256836 C-502.28068837 991.05604399 -499.04585022 997.38545819 -495.69921875 1003.68359375 C-491.3419842 1011.89405142 -487.14806444 1020.18242779 -483 1028.5 C-482.68416647 1029.13313551 -482.36833294 1029.76627102 -482.0429287 1030.41859245 C-479.4244613 1035.66951705 -476.81121714 1040.92303723 -474.19812012 1046.17663574 C-472.23815952 1050.11665289 -470.27635261 1054.05574125 -468.31234741 1057.9937439 C-467.41914966 1059.78639163 -466.52847852 1061.5802976 -465.63793945 1063.37426758 C-462.82358723 1069.01935079 -459.96358781 1074.63180259 -457.00123596 1080.20074463 C-449.10675023 1095.05212582 -441.66075415 1110.13077752 -434.15626526 1125.18150711 C-432.08604666 1129.33207212 -430.01313368 1133.48129098 -427.94042969 1137.63061523 C-422.24233393 1149.03874677 -416.54829044 1160.4488996 -410.85430908 1171.85908508 C-405.62729045 1182.33341599 -400.39936991 1192.80729429 -395.16818619 1203.27954578 C-393.11555127 1207.38893664 -391.06375884 1211.49874334 -389.01403809 1215.60958862 C-377.84918809 1238.00344898 -377.84918809 1238.00344898 -366.29467773 1260.19799805 C-363.20081093 1266.02587301 -360.25966261 1271.92965753 -357.3243866 1277.83856201 C-356.29797126 1279.9046487 -355.26871578 1281.96930187 -354.2388916 1284.03369141 C-351.68590417 1289.15274327 -349.13739356 1294.2740202 -346.58880615 1299.39526367 C-344.07196884 1304.45218141 -341.55322311 1309.50814143 -339.03125 1314.5625 C-338.68421021 1315.25810028 -338.33717041 1315.95370056 -337.97961426 1316.67037964 C-333.19304593 1326.25715123 -328.30298776 1335.7814175 -323.27148438 1345.2421875 C-319.5504512 1352.25028932 -316.0692419 1359.37899845 -312.5546875 1366.4921875 C-308.86050464 1373.93209996 -305.04151874 1381.29433083 -301.15869141 1388.63708496 C-295.59381454 1399.1773037 -290.20312705 1409.80658603 -284.79199219 1420.42626953 C-279.0765229 1431.63892283 -273.30348103 1442.81682841 -267.42480469 1453.94482422 C-265.02330733 1458.49200452 -262.65746413 1463.05719213 -260.29736328 1467.62597656 C-255.73644561 1476.45384943 -251.10557782 1485.23343178 -246.3125 1493.9375 C-241.62629193 1502.44814763 -237.12826114 1511.04728838 -232.6875 1519.6875 C-227.84710842 1529.10219353 -222.92051735 1538.45865146 -217.81420898 1547.73266602 C-213.90244475 1554.84502367 -210.08592475 1562.00569096 -206.28353882 1569.17681885 C-199.61829037 1581.7405573 -192.77968733 1594.18790348 -185.70800781 1606.52880859 C-184.21115816 1609.14613241 -182.72519373 1611.76934311 -181.2421875 1614.39453125 C-174.77638037 1625.8168454 -168.08392067 1637.09103156 -161.30859375 1648.33203125 C-156.32000591 1656.61480937 -151.39329628 1664.93411898 -146.46392822 1673.25222778 C-141.78120569 1681.152991 -137.07898008 1689.04070044 -132.33154297 1696.90283203 C-124.36093253 1710.10926869 -116.66543392 1723.46092629 -109.06152344 1736.88037109 C-107.32825168 1739.93911252 -105.59054739 1742.99528558 -103.8515625 1746.05078125 C-100.61122905 1751.75241674 -97.39431814 1757.46695616 -94.1875 1763.1875 C-93.27581055 1764.81147705 -93.27581055 1764.81147705 -92.34570312 1766.46826172 C-82.22854223 1784.52765069 -72.56343532 1802.7915482 -63.19091797 1821.24804688 C-61.91226108 1823.76558738 -60.62812518 1826.2801424 -59.33642578 1828.79101562 C-49.50959584 1847.90792728 -40.67821638 1867.38491257 -32.10345459 1887.08673096 C-31.23605121 1889.07614637 -30.36442537 1891.06363729 -29.49072266 1893.05029297 C-21.80248847 1910.55049198 -14.73422678 1928.22890942 -8.1875 1946.1875 C-7.96122925 1946.80786133 -7.7349585 1947.42822266 -7.50183105 1948.06738281 C4.51178717 1981.07225108 15.42947647 2014.48040183 26.2277832 2047.89868164 C52.40574048 2128.90865789 83.12316303 2208.77445132 141.4765625 2272.60546875 C143.36954061 2274.69787432 145.21687488 2276.81614268 147.05859375 2278.953125 C150.94398889 2283.40227723 155.06319938 2287.58581036 159.25 2291.75 C159.96220703 2292.46607422 160.67441406 2293.18214844 161.40820312 2293.91992188 C166.04496038 2298.54825632 170.8199899 2302.94623778 175.8125 2307.1875 C176.40796631 2307.69498779 177.00343262 2308.20247559 177.61694336 2308.7253418 C198.7876069 2326.59728667 221.78073444 2341.34314188 246.8125 2353.1875 C247.49038574 2353.51314941 248.16827148 2353.83879883 248.86669922 2354.17431641 C275.86774025 2367.06217658 305.13498453 2374.72628752 334.8125 2378.1875 C335.93615967 2378.32889404 335.93615967 2378.32889404 337.08251953 2378.47314453 C346.95170007 2379.55764855 356.8964625 2379.43136216 366.8125 2379.4375 C367.79192566 2379.43817474 368.77135132 2379.43884949 369.78045654 2379.43954468 C385.64949648 2379.42221722 401.12161115 2378.75177951 416.8125 2376.1875 C417.87984375 2376.01589355 418.9471875 2375.84428711 420.046875 2375.66748047 C436.28407437 2372.97651096 452.10111521 2369.07041878 467.8125 2364.1875 C469.48771729 2363.66808838 469.48771729 2363.66808838 471.19677734 2363.13818359 C508.47436947 2351.37652385 543.07464746 2333.22344575 576.8984375 2313.84814453 C583.11978706 2310.30276754 589.38192877 2306.82961589 595.63525391 2303.34106445 C600.40971654 2300.67219971 605.1740373 2297.99105226 609.8984375 2295.234375 C679.64961766 2254.5669954 749.68366185 2226.79794186 830.73828125 2247.68359375 C856.98760154 2254.77611955 881.60795273 2265.97343157 905.8125 2278.1875 C906.45503723 2278.5110144 907.09757446 2278.83452881 907.75958252 2279.16784668 C923.3649431 2287.03056057 938.78032612 2295.15276683 953.9453125 2303.83984375 C960.69896685 2307.70721174 967.49995904 2311.48771129 974.3125 2315.25 C974.9264563 2315.589104 975.5404126 2315.92820801 976.17297363 2316.27758789 C986.31263051 2321.87054427 996.53593636 2327.29043355 1006.828125 2332.59765625 C1009.75692288 2334.10970018 1012.6675903 2335.64180722 1015.546875 2337.24609375 C1066.29926851 2365.37040398 1124.55878431 2383.29412721 1182.8125 2382.1875 C1184.34729004 2382.16067139 1184.34729004 2382.16067139 1185.91308594 2382.13330078 C1250.56891751 2380.8461969 1308.53639798 2361.21876743 1358.8125 2320.1875 C1359.33924316 2319.7651709 1359.86598633 2319.3428418 1360.40869141 2318.90771484 C1368.98379694 2312.00786949 1376.8284244 2304.37874839 1384.625 2296.625 C1385.11314178 2296.14212524 1385.60128357 2295.65925049 1386.10421753 2295.16174316 C1392.8055978 2288.51634757 1398.91949448 2281.55877111 1404.8125 2274.1875 C1405.74751246 2273.08586949 1406.68886422 2271.98953715 1407.640625 2270.90234375 C1453.09651618 2218.7747008 1481.39023684 2152.50054946 1504.8125 2088.1875 C1505.09935669 2087.40082947 1505.38621338 2086.61415894 1505.6817627 2085.8036499 C1517.0601269 2054.53199201 1527.02080145 2022.80982919 1537.04699707 1991.0872345 C1557.19074787 1927.36229224 1579.98924655 1865.52264798 1609.26904297 1805.37597656 C1610.76956022 1802.27620508 1612.25031339 1799.16792762 1613.72265625 1796.0546875 C1619.03409216 1784.82376317 1624.53115465 1773.73634019 1630.41552734 1762.79443359 C1631.95168849 1759.92775609 1633.47010246 1757.05202017 1634.98828125 1754.17578125 C1641.58293717 1741.73859974 1648.47142626 1729.52788492 1655.70068359 1717.44873047 C1660.58263779 1709.28860698 1665.35769894 1701.07574821 1670.0625 1692.8125 C1670.39776703 1692.2237912 1670.73303406 1691.6350824 1671.07846069 1691.02853394 C1672.71656588 1688.15112733 1674.35307262 1685.27281968 1675.98876953 1682.39404297 C1678.16325017 1678.57079951 1680.34762814 1674.75329173 1682.53344727 1670.93652344 C1694.12034404 1650.69851429 1705.53509796 1630.36702538 1716.82885742 1609.96405029 C1717.82223457 1608.16991845 1718.81631065 1606.37617543 1719.81054688 1604.58251953 C1728.67058776 1588.59560306 1737.43376759 1572.56074132 1746.06494141 1556.44873047 C1747.83640967 1553.14288063 1749.61127766 1549.8388739 1751.38671875 1546.53515625 C1764.66339872 1521.81379708 1777.83885873 1497.03949206 1790.69580078 1472.09692383 C1793.99653092 1465.6942545 1797.31761981 1459.30402322 1800.6875 1452.9375 C1807.01308982 1440.97150355 1813.17990538 1428.92281861 1819.36764526 1416.88517761 C1821.67244137 1412.40198738 1823.9808062 1407.9206589 1826.2923584 1403.44094849 C1834.02961107 1388.44630904 1841.75926431 1373.45167301 1849.22753906 1358.32055664 C1851.75117784 1353.22698591 1854.33959703 1348.17526671 1857.00720215 1343.15600586 C1861.87937818 1333.98306064 1866.58267318 1324.73135315 1871.21875 1315.4375 C1871.54549713 1314.78256561 1871.87224426 1314.12763123 1872.20889282 1313.45285034 C1874.57961275 1308.69915176 1876.94645317 1303.94352584 1879.3125 1299.1875 C1882.00784402 1293.769549 1884.704747 1288.35238311 1887.40625 1282.9375 C1887.8980777 1281.95156357 1887.8980777 1281.95156357 1888.39984131 1280.94570923 C1892.50302501 1272.72700353 1896.68385269 1264.55733856 1901.00256348 1256.44946289 C1904.78399467 1249.31610596 1908.39648303 1242.09931261 1912 1234.875 C1912.47493141 1233.92297699 1912.47493141 1233.92297699 1912.9594574 1232.95172119 C1915.24666102 1228.365068 1917.52997691 1223.77648381 1919.8125 1219.1875 C1922.41408568 1213.95704489 1925.01725067 1208.72738531 1927.625 1203.5 C1927.9396521 1202.86917511 1928.2543042 1202.23835022 1928.57849121 1201.58840942 C1932.77204545 1193.18815033 1937.04830102 1184.83800527 1941.45385742 1176.546875 C1945.03059881 1169.81064106 1948.44796022 1163.00095623 1951.83209229 1156.16635132 C1957.17741225 1145.3773772 1962.60318503 1134.64241839 1968.2578125 1124.01171875 C1971.49135143 1117.92896562 1974.647214 1111.80595651 1977.8125 1105.6875 C1981.78800593 1098.00771424 1985.77582819 1090.3353109 1989.8125 1082.6875 C2000.61870223 1062.2093655 2011.19138505 1041.61872689 2021.54467773 1020.90844727 C2022.76392204 1018.46987729 2023.98598074 1016.032752 2025.21069336 1013.59692383 C2034.08597577 995.94306881 2042.59399263 978.15804285 2050.8125 960.1875 C2051.58575922 958.50394312 2052.35910589 956.8204264 2053.13256836 955.13696289 C2069.74366797 918.88963664 2085.03448439 882.07509246 2098.05462646 844.38037109 C2098.82197803 842.16007578 2099.59367385 839.94132206 2100.36572266 837.72265625 C2121.62680346 776.45971674 2136.25428006 712.97135622 2140.8125 648.1875 C2140.87034668 647.41664063 2140.92819336 646.64578125 2140.98779297 645.8515625 C2146.39909382 571.6027342 2135.13951605 495.39450521 2110.8125 425.1875 C2110.41562988 424.02863281 2110.01875977 422.86976563 2109.60986328 421.67578125 C2101.42949353 397.87126221 2091.80932362 374.84839362 2081.15185547 352.05419922 C2079.86568909 349.30134365 2078.59070299 346.54352091 2077.31640625 343.78515625 C2059.95175079 306.46363958 2037.82014562 271.40888909 2012.3125 239.125 C2011.85311035 238.54266602 2011.3937207 237.96033203 2010.92041016 237.36035156 C2004.54449672 229.2984465 1998.08611512 221.35844681 1991.1484375 213.76953125 C1989.23761978 211.65740665 1987.36049029 209.52443738 1985.4921875 207.375 C1981.93076156 203.29628528 1978.2709472 199.32006336 1974.5625 195.375 C1973.5868811 194.33678101 1973.5868811 194.33678101 1972.59155273 193.27758789 C1965.34823225 185.59797644 1958.0678029 177.97768162 1950.02734375 171.12109375 C1947.69939048 169.0887536 1945.44134238 166.99407161 1943.18359375 164.88452148 C1936.92917024 159.04458051 1930.50399481 153.52636333 1923.8125 148.1875 C1922.68280792 147.26658815 1921.55394468 146.34465889 1920.42578125 145.421875 C1853.71138677 91.08003381 1773.90747783 52.17706138 1595.8125 13.1875 C1595.08728149 13.10286499 1594.36206299 13.01822998 1593.61486816 12.93103027 C1522.94446805 4.76208598 1450.00103935 10.18731407 1380.8125 26.1875 C1379.55066895 26.47818359 1378.28883789 26.76886719 1376.98876953 27.06835938 C1335.11710917 36.90518662 1294.56045881 51.57080969 1255.8125 70.1875 C1254.76642578 70.68862305 1253.72035156 71.18974609 1252.64257812 71.70605469 C1236.5706302 79.452444 1221.06096025 87.92950628 1205.8125 97.1875 C1204.79349609 97.80415527 1203.77449219 98.42081055 1202.72460938 99.05615234 C1189.31704677 107.20366335 1176.34195393 115.74459802 1163.8125 125.1875 C1163.07386719 125.74211914 1162.33523438 126.29673828 1161.57421875 126.86816406 C1144.19839432 139.94504747 1127.43837945 153.75281886 1111.53027344 168.58740234 C1110.28320772 169.74903803 1109.03351006 170.90785024 1107.78222656 172.06494141 C1100.11231968 179.1595194 1092.51145756 186.19317197 1085.65625 194.08984375 C1083.90296442 196.08457756 1082.08342847 197.95399118 1080.1875 199.8125 C1076.51765177 203.43207633 1073.15726421 207.26785444 1069.8125 211.1875 C1068.9875 212.1465625 1068.1625 213.105625 1067.3125 214.09375 C1039.33724716 246.75259673 1015.3498298 282.51327264 995.24365234 320.50146484 C994.01272858 322.81170422 992.75978907 325.10648963 991.48828125 327.39453125 C954.1736198 395.02309158 933.1765462 473.60739374 915.63537598 649.72918701 C908.16895241 798.90606895 908.16895241 798.90606895 858.8125 850.1875 C858.24402344 850.81914063 857.67554688 851.45078125 857.08984375 852.1015625 C837.26164243 873.50182071 804.80521056 887.0172497 776.0144043 888.31347656 C762.33052975 888.65701389 749.12908886 888.5240362 735.8125 885.1875 C734.78020264 884.93806641 734.78020264 884.93806641 733.72705078 884.68359375 C699.40540229 876.18385049 670.47485289 853.56638516 651.6875 823.875 C620.84114634 772.11270834 620.24558021 711.08178277 617.8125 652.5 C615.75366282 601.28145585 615.75366282 601.28145585 610.5 550.3125 C610.39545502 549.52573883 610.29091003 548.73897766 610.18319702 547.92837524 C601.71607322 484.39784625 584.90302152 421.78720912 558.8125 363.1875 C558.10722168 361.59760254 558.10722168 361.59760254 557.38769531 359.97558594 C535.09878458 310.01039742 506.84943234 263.24308471 471.8125 221.1875 C471.0994873 220.32584229 471.0994873 220.32584229 470.37207031 219.44677734 C469.91155273 218.89070801 469.45103516 218.33463867 468.9765625 217.76171875 C468.58033691 217.28307373 468.18411133 216.80442871 467.77587891 216.3112793 C457.73560568 204.39307337 446.9895552 193.19699739 435.95654297 182.20117188 C434.04667006 180.29671495 432.14227851 178.38689181 430.23828125 176.4765625 C424.26659474 170.50128718 418.28813613 164.62187478 411.8125 159.1875 C410.69389051 158.21517518 409.57667752 157.2412412 408.4609375 156.265625 C400.43767685 149.31512242 392.25895513 142.61733478 383.8125 136.1875 C382.78310303 135.40318604 382.78310303 135.40318604 381.73291016 134.60302734 C354.05488506 113.62619338 324.55015674 95.32462907 293.8125 79.1875 C292.95188965 78.73455566 292.0912793 78.28161133 291.20458984 77.81494141 C220.50076571 40.87574642 141.16941506 19.20735268 1.5625 9 C-0.08457443 9.00090637 -0.08457443 9.00090637 -1.7649231 9.00183105 C-19.65578469 9.02844687 -37.3669152 9.48840949 -55.1875 11.1875 Z " fill="#231815" transform="translate(617.1875,-0.1875)"/>
</svg>
